<?xml version="1.0" encoding="UTF-8"?>
<svg version="1.1" xmlns="http://www.w3.org/2000/svg" width="1575" height="1658">
<path d="M0 0 C519.75 0 1039.5 0 1575 0 C1575 547.14 1575 1094.28 1575 1658 C1055.25 1658 535.5 1658 0 1658 C0 1110.86 0 563.72 0 0 Z " fill="#DDD0C0" transform="translate(0,0)"/>
<path d="M0 0 C0 3.75960805 -0.88641737 4.33427569 -3.3125 7.125 C-13.34114701 19.3114864 -21.22203085 33.30825048 -29 47 C-29.70576172 48.2389502 -29.70576172 48.2389502 -30.42578125 49.50292969 C-42.69930808 71.1759055 -52.70554362 93.52240303 -61 117 C-61.31952637 117.8981543 -61.63905273 118.79630859 -61.96826172 119.72167969 C-74.57871842 155.43702438 -81.54806811 192.63100582 -84.76651001 230.30439758 C-84.92269653 232.10754452 -85.08509344 233.91016387 -85.25357056 235.71220398 C-85.87646969 242.61585076 -86.17167012 249.45668762 -86.203125 256.38671875 C-86.21022995 257.4342482 -86.2173349 258.48177765 -86.22465515 259.56105042 C-86.47285972 307.01281234 -82.74865503 354.969161 -68.3125 400.5 C-67.97001221 401.59183594 -67.62752441 402.68367188 -67.2746582 403.80859375 C-66.19786457 407.21068681 -65.10339519 410.6064468 -64 414 C-63.64776367 415.08410156 -63.29552734 416.16820312 -62.93261719 417.28515625 C-46.44214421 467.52744055 -21.57230721 514.32118285 11 556 C11.70253906 556.90363281 12.40507812 557.80726563 13.12890625 558.73828125 C24.78048107 573.49694268 37.30815617 587.3781547 50.54745483 600.72268677 C51.95726623 602.1444053 53.36309679 603.57006788 54.76879883 604.99584961 C60.86907311 611.1037581 67.26288538 616.61152269 74 622 C75.10162616 622.93501758 76.19797414 623.87635133 77.28515625 624.828125 C145.3350608 684.16840745 237.64768319 717.50647646 323 743 C324.41290042 743.42922693 325.82564866 743.85895494 327.23828125 744.2890625 C341.77546437 748.70043926 356.38340511 752.86073329 371 757 C372.09602539 757.31114746 373.19205078 757.62229492 374.32128906 757.94287109 C386.57510234 761.41819386 398.85132456 764.76493532 411.18530273 767.9440918 C416.95992101 769.44136387 422.66181457 771.0746999 428.34765625 772.8828125 C433.47709295 774.45181667 438.64442885 775.87670733 443.8125 777.3125 C453.32426106 779.9575806 462.8123169 782.67308428 472.28540039 785.45336914 C476.82052172 786.78348907 481.35646083 788.10755368 485.90625 789.38671875 C502.70048264 794.10903386 519.36233211 799.26455261 536.03515625 804.39562988 C537.83047304 804.94785487 539.62615515 805.49889178 541.421875 806.04980469 C544.61553919 807.03012587 547.80781441 808.0148759 551 809 C552.16966309 809.35819824 553.33932617 809.71639648 554.54443359 810.08544922 C565.45192082 813.44305833 576.27181946 817.0526755 587.07910156 820.71875 C589.09789025 821.40225139 591.11773949 822.08262885 593.13867188 822.75976562 C613.32698329 829.52422911 633.19919925 836.93696084 652 847 C652.60247559 847.31791504 653.20495117 847.63583008 653.82568359 847.96337891 C681.94759813 862.90764786 704.64855893 886.1445795 715.21875 916.5 C716.26276946 919.98006485 717.15570414 923.46646548 718 927 C718.2990625 928.1034375 718.598125 929.206875 718.90625 930.34375 C727.9527738 968.87524025 717.59625629 1011.8962773 697.23876953 1045.08154297 C688.33956539 1058.86355837 676.55419636 1071.50646719 664 1082 C663.67 1081.34 663.34 1080.68 663 1080 C663.61743164 1078.34619141 663.61743164 1078.34619141 664.66015625 1076.3515625 C665.03897949 1075.60406738 665.41780273 1074.85657227 665.80810547 1074.08642578 C666.22205566 1073.27415527 666.63600586 1072.46188477 667.0625 1071.625 C683.68443045 1037.61118593 686.85938881 994.49153051 674.53564453 958.54663086 C661.5505811 922.98783402 631.4630222 900.56980731 598.14624023 885.04907227 C576.50340098 875.39848681 553.56207202 868.39563583 531.07766724 861.00479126 C526.97475819 859.65525942 522.87833162 858.28892599 518.7890625 856.8984375 C508.65699832 853.4554052 498.47629342 850.34736415 488.171875 847.4609375 C483.15853426 846.05457337 478.17113709 844.57031362 473.1875 843.0625 C464.85099881 840.54304611 456.4937142 838.10052696 448.12915039 835.67602539 C442.21994797 833.9571988 436.32904818 832.18895029 430.44921875 830.37231445 C418.02904682 826.53610471 405.51801409 823.12217614 392.95458984 819.7890625 C388.79538603 818.67829182 384.64638488 817.53258041 380.5 816.375 C379.78803467 816.17632324 379.07606934 815.97764648 378.3425293 815.77294922 C376.93530206 815.37985091 375.5281558 814.98646259 374.12109375 814.59277344 C371.26456392 813.79447067 368.40674558 813.000838 365.54882812 812.20751953 C364.03362427 811.78691984 362.51845791 811.36618495 361.00337219 810.94515991 C357.30637604 809.91784787 353.60914018 808.89143678 349.91088867 807.86865234 C258.7346258 782.6353066 164.72060963 754.77978213 69 694 C68.42620605 693.60635254 67.85241211 693.21270508 67.26123047 692.80712891 C58.06429904 686.47468809 49.39250161 679.58529907 40.79101562 672.47070312 C39.25426363 671.20879009 37.69916198 669.96928135 36.140625 668.734375 C20.36325957 656.20810305 4.88600431 641.62369588 -8.12890625 626.20703125 C-9.65425033 624.40782581 -11.2045763 622.64402702 -12.77734375 620.88671875 C-21.82320645 610.71855104 -29.97609392 599.9848717 -38 589 C-38.78673096 587.93724854 -38.78673096 587.93724854 -39.58935547 586.85302734 C-71.45242616 543.77100368 -93.5752456 494.08019559 -109 443 C-109.24443848 442.20658203 -109.48887695 441.41316406 -109.74072266 440.59570312 C-113.91871833 426.95691467 -116.50275326 413.02998625 -119 399 C-119.18981445 397.93813477 -119.37962891 396.87626953 -119.57519531 395.78222656 C-130.09550027 336.36369157 -128.47303482 275.00388069 -116 216 C-115.77666992 214.92588867 -115.55333984 213.85177734 -115.32324219 212.74511719 C-112.78431822 200.65151729 -109.72141955 188.78141825 -106 177 C-105.76619629 176.24025879 -105.53239258 175.48051758 -105.29150391 174.69775391 C-98.75906156 153.55882216 -90.44519334 132.55160196 -80.05126953 112.99658203 C-78.86197513 110.73786172 -77.70998559 108.46186077 -76.55859375 106.18359375 C-58.56758486 70.83839634 -35.63190367 39.26221514 -9 10 C-7.31150328 8.12589753 -5.62398223 6.25091549 -3.9375 4.375 C-2.625 2.91666667 -1.3125 1.45833333 0 0 Z " fill="#020C17" transform="translate(248,88)"/>
<path d="M0 0 C0.08451416 0.53214111 0.16902832 1.06428223 0.25610352 1.61254883 C1.1599347 7.29656378 2.0718593 12.97924022 2.98666382 18.66149902 C3.58148785 22.3650887 4.16876304 26.06974876 4.74755859 29.77587891 C11.85943332 75.3109137 20.5935294 120.13738236 35 164 C35.22685486 164.69152161 35.45370972 165.38304321 35.68743896 166.09552002 C45.12836123 194.8086428 55.96942266 222.69951216 69 250 C69.49193848 251.03447266 69.98387695 252.06894531 70.49072266 253.13476562 C89.56628047 292.97959096 113.89443286 330.72247129 143 364 C143.63035156 364.72960938 144.26070312 365.45921875 144.91015625 366.2109375 C146.59427567 368.15208654 148.29563373 370.07661151 150 372 C150.6185083 372.70334473 151.2370166 373.40668945 151.87426758 374.13134766 C157.54118376 380.51235771 163.44917589 386.60411319 169.4934082 392.6237793 C171.06774155 394.1927236 172.63661589 395.76698558 174.20507812 397.34179688 C179.63081127 402.77137405 185.13860376 408.03804649 191 413 C191.96421875 413.845625 192.9284375 414.69125 193.921875 415.5625 C216.6149565 435.12117797 241.81935165 452.43623212 268 467 C268.8549707 467.48210937 269.70994141 467.96421875 270.59082031 468.4609375 C305.78174718 488.25352596 343.44636887 504.46652706 382.39990234 515.27832031 C384.28441613 515.80138348 386.16736006 516.33011335 388.04931641 516.86230469 C420.2332615 525.92886636 452.85338786 532.63474495 486 537 C486.67385742 537.09003296 487.34771484 537.18006592 488.04199219 537.27282715 C499.00728488 538.7349969 509.98791371 539.94924026 521 541 C521.78566345 541.0762561 522.5713269 541.15251221 523.38079834 541.2310791 C550.07681437 543.79252042 576.75230206 544.2880469 603.55066681 544.31007385 C606.00951447 544.31244882 608.46834293 544.31775552 610.92718506 544.32336426 C643.60940451 544.3778063 676.08948196 542.74891504 708.625 539.625 C709.78090637 539.51573181 710.93681274 539.40646362 712.12774658 539.29388428 C727.63246408 537.82235386 743.08252852 536.28056466 758.43554688 533.6171875 C761.14376989 533.14825683 763.85279992 532.69045915 766.56445312 532.2421875 C786.05723192 529.01761894 805.37135287 525.56871912 824.51318359 520.62597656 C826.75876045 520.06072435 829.00615665 519.54287685 831.26953125 519.0546875 C870.33144228 510.61529764 910.53829954 495.68067455 945.88378906 477.10302734 C948.35708689 475.81387649 950.84620153 474.55788381 953.3359375 473.30078125 C992.94612718 453.16420638 1028.85514481 426.67775195 1060 395 C1060 399.12744343 1058.38249504 400.04694583 1055.5625 403 C1052.15509516 406.62348125 1048.90539273 410.28596928 1045.8125 414.1875 C1036.67943222 425.44527452 1026.38163659 435.71172793 1016.18099976 445.99423218 C1014.79414888 447.39297263 1013.41128896 448.79566661 1012.02856445 450.19848633 C1006.74381054 455.49000751 1001.28542018 460.36817654 995.44677734 465.04125977 C993.49794142 466.60137856 991.59259878 468.18439742 989.71484375 469.828125 C969.0483138 487.84957165 945.5960968 502.39587048 921.62158203 515.56005859 C919.31336017 516.82788245 917.01359359 518.10966202 914.71484375 519.39453125 C892.83972403 531.46079266 869.42850459 540.47072874 846 549 C844.97390625 549.37640625 843.9478125 549.7528125 842.890625 550.140625 C806.92724771 563.27011195 769.30344755 571.87124991 731.49609375 577.65673828 C727.02629902 578.34136184 722.589095 579.06241686 718.1640625 579.99609375 C711.76056141 581.30327817 705.29934166 582.10648461 698.8125 582.875 C698.1088028 582.95859772 697.40510559 583.04219543 696.68008423 583.12832642 C660.32275616 587.37654824 623.60387202 589.72289432 587 590 C585.63328156 590.01129944 585.63328156 590.01129944 584.23895264 590.02282715 C493.43860868 590.74239213 402.8702956 582.73992445 204 498 C202.95070313 497.32710937 201.90140625 496.65421875 200.8203125 495.9609375 C182.71998385 484.17817509 165.29197417 470.83625978 149.40625 456.1953125 C148.09793548 455.00168789 146.78216157 453.81528657 145.43139648 452.66992188 C138.94409658 447.14500942 132.94897226 441.13506733 126.92797852 435.11328125 C125.07522532 433.26271033 123.21461294 431.42029924 121.35351562 429.578125 C115.15167015 423.40484658 109.25926216 417.1902897 103.84057617 410.30810547 C102.0590774 408.0740838 100.19191729 405.96990702 98.25 403.875 C73.60735621 376.39649641 54.19204532 343.49036643 37 311 C36.48421387 310.02724121 35.96842773 309.05448242 35.43701172 308.05224609 C19.57796094 277.89186234 7.4816531 246.19047731 -3.35089111 213.93231201 C-3.94455626 212.16504874 -4.54214508 210.39910478 -5.14013672 208.63330078 C-9.57534128 195.46889476 -13.1156934 182.16237145 -16.35644531 168.65771484 C-16.91611354 166.34642946 -17.49309848 164.04123281 -18.0859375 161.73828125 C-22.71517674 143.72128211 -26.37900784 125.49571472 -29.81640625 107.21875 C-30.51621147 103.50149293 -31.24243299 99.79393419 -32.02734375 96.09375 C-34.58339242 83.83463043 -36.19443719 71.48080059 -37.75 59.0625 C-37.91943115 57.71813873 -37.91943115 57.71813873 -38.09228516 56.34661865 C-38.4156234 53.76423257 -38.73266018 51.18116691 -39.046875 48.59765625 C-39.14353455 47.82032639 -39.24019409 47.04299652 -39.33978271 46.24211121 C-40.68014121 34.98929631 -40.68014121 34.98929631 -37.98046875 31.0625 C-37.06309932 30.02940967 -36.13114121 29.00914992 -35.1875 28 C-34.17599321 26.86540943 -33.16695663 25.72861272 -32.16015625 24.58984375 C-31.63824707 24.00444824 -31.11633789 23.41905273 -30.57861328 22.81591797 C-27.97700028 19.82321808 -25.55257086 16.6968001 -23.125 13.5625 C-21.83810525 11.90296508 -20.54989684 10.24487004 -19.25097656 8.59472656 C-18.39301988 7.50101598 -17.54653347 6.39823859 -16.70996094 5.28808594 C-13.5310948 1.20720744 -13.5310948 1.20720744 -10.9375 0.1953125 C-10.298125 0.17210937 -9.65875 0.14890625 -9 0.125 C-8.0409375 0.06699219 -8.0409375 0.06699219 -7.0625 0.0078125 C-4.70825205 -0.00110511 -2.35425848 -0.00817451 0 0 Z " fill="#010515" transform="translate(111,1006)"/>
<path d="M0 0 C1.13824219 0.38542969 2.27648437 0.77085938 3.44921875 1.16796875 C15.53319784 5.50472779 25.42841813 11.45791967 35 20 C35.845625 20.75023437 36.69125 21.50046875 37.5625 22.2734375 C58.52011497 41.98669409 68.42019255 71.48574662 69.32795715 99.71092224 C69.4418434 104.51552273 69.47724776 109.31923174 69.5 114.125 C69.51026215 115.05381989 69.52052429 115.98263977 69.53109741 116.93960571 C69.78714494 146.10621396 62.73304184 177.54664823 43 200 C42.35933594 200.7940625 41.71867188 201.588125 41.05859375 202.40625 C27.0918702 219.0737212 5.97654401 229.36901888 -15.52905273 231.81689453 C-20.68726408 232.19913527 -25.85370871 232.22533928 -31.02416992 232.24023438 C-33.03381271 232.24986256 -35.043315 232.28102598 -37.05273438 232.3125 C-59.43422487 232.4003136 -79.73647612 225.36982844 -97 211 C-97.60457031 210.52949219 -98.20914063 210.05898437 -98.83203125 209.57421875 C-119.2344082 193.22468418 -129.83462795 164.67693342 -133.17285156 139.39599609 C-137.35146875 101.50092184 -133.81467645 60.87777003 -109.53515625 29.9765625 C-101.08476407 20.05483855 -92.61195684 12.1269119 -81 6 C-80.09765625 5.52046875 -79.1953125 5.0409375 -78.265625 4.546875 C-55.96541241 -6.40530042 -23.51045952 -8.56193484 0 0 Z " fill="#000315" transform="translate(965,1184)"/>
<path d="M0 0 C25.67981793 24.06229033 39.9181906 55.8011903 50.375 88.875 C50.73166748 89.99600098 51.08833496 91.11700195 51.45581055 92.27197266 C57.4464076 111.78262007 60.8930228 131.73756497 64 151.875 C64.36194233 154.1837017 64.72456933 156.49229616 65.08789062 158.80078125 C65.96228381 164.3659824 66.82836959 169.93242329 67.6875 175.5 C76.70853784 175.10880297 85.72933257 174.71213838 94.75 174.3125 C95.46452835 174.28085377 96.1790567 174.24920753 96.91523743 174.21660233 C118.08514066 173.27786432 139.25235429 172.28876013 160.41796875 171.2578125 C161.5284363 171.20374174 162.63890385 171.14967098 163.78302193 171.09396172 C174.90152009 170.5522423 186.01987923 170.00775833 197.13803196 169.45899487 C218.14312075 168.42282063 239.14904425 167.40398719 260.15949249 166.48182869 C262.14682977 166.39422091 264.13411243 166.3053627 266.12133026 166.21508598 C271.46702716 165.9732018 276.81211191 165.76417004 282.16059875 165.59483719 C284.72232977 165.4986928 287.27853149 165.35393101 289.83776855 165.20651245 C291.4591619 165.14176268 293.08062073 165.0786266 294.70214844 165.01733398 C295.43419621 164.96291421 296.16624397 164.90849443 296.92047501 164.85242558 C299.90622462 164.77517493 302.05719837 164.92108393 304.30475616 166.98540878 C306.60647074 169.94778352 308.50373916 173.04925576 309.9375 176.5234375 C311.38093042 179.84994582 313.02487406 182.9111091 314.9375 186 C315.40414062 186.78117188 315.87078125 187.56234375 316.3515625 188.3671875 C317.59727901 190.35596298 318.9172505 192.23929916 320.3125 194.125 C326.6875 202.79004854 326.6875 202.79004854 326.6875 206.5 C325.66303756 206.54996612 325.66303756 206.54996612 324.61787891 206.60094166 C307.70848401 207.42580837 290.79920591 208.25302947 273.8900423 209.08262348 C265.71165948 209.4838173 257.53324357 209.88430887 249.35473633 210.28295898 C239.87830646 210.74496964 230.40198397 211.20913418 220.92578125 211.67578125 C220.14738065 211.71409467 219.36898006 211.75240808 218.56699157 211.79188251 C196.35944527 212.88583808 174.15899364 214.06545149 151.961586 215.35106468 C136.06114278 216.27128992 120.16794649 217.0705961 104.25 217.625 C100.2095148 217.77028313 96.16916442 217.91884986 92.12890625 218.0703125 C91.19411438 218.1050618 90.25932251 218.1398111 89.29620361 218.1756134 C84.37124484 218.36699853 79.4651433 218.63319782 74.55078125 219.01953125 C65.48483969 219.72312818 56.40051504 219.8578526 47.3125 220.0625 C45.49738859 220.10581737 43.68228433 220.14943521 41.8671875 220.19335938 C37.47403281 220.2990288 33.08080219 220.40066039 28.6875 220.5 C28.50743408 219.33488892 28.50743408 219.33488892 28.32373047 218.14624023 C15.4140581 128.85660485 15.4140581 128.85660485 -31.16796875 53.671875 C-33.3125 51.5 -33.3125 51.5 -33.3125 49.5 C-33.87195313 49.26410156 -34.43140625 49.02820313 -35.0078125 48.78515625 C-37.85475132 47.19762596 -39.84877261 45.20869575 -42.1875 42.9375 C-48.32317767 37.20865346 -55.07317045 32.71300869 -62.3125 28.5 C-62.99779785 28.0978125 -63.6830957 27.695625 -64.38916016 27.28125 C-100.15453898 6.59921481 -143.4684395 -1.70535962 -184.46875 -1.6328125 C-186.30318665 -1.63424759 -186.30318665 -1.63424759 -188.17468262 -1.63571167 C-190.74959363 -1.63638818 -193.32450639 -1.63457107 -195.89941406 -1.63037109 C-199.77412908 -1.62505267 -203.64872621 -1.63031508 -207.5234375 -1.63671875 C-226.3292273 -1.64335381 -244.98382177 -1.45586999 -263.625 1.25 C-264.85935791 1.42772949 -266.09371582 1.60545898 -267.36547852 1.78857422 C-294.8086638 5.87272945 -323.04359427 12.57852557 -347.3125 26.5 C-347.88645508 26.82661621 -348.46041016 27.15323242 -349.05175781 27.48974609 C-351.67157229 28.98373248 -354.27391974 30.50196996 -356.859375 32.0546875 C-358.97609164 33.30179762 -361.09994988 34.43508102 -363.3125 35.5 C-356.13505129 11.28950137 -329.63184426 -7.49308695 -308.80883789 -19.11865234 C-234.20535166 -59.38363856 -115.26652817 -60.35549337 0 0 Z " fill="#586962" transform="translate(865.3125,264.5)"/>
<path d="M0 0 C0.83476868 -0.04165787 1.66953735 -0.08331573 2.52960205 -0.12623596 C3.42443298 -0.14637253 4.31926392 -0.16650909 5.24121094 -0.18725586 C6.17100769 -0.21242783 7.10080444 -0.23759979 8.05877686 -0.26353455 C10.02546306 -0.30566016 11.99243149 -0.33602015 13.95947266 -0.35546875 C16.95572958 -0.40179262 19.9394199 -0.53861022 22.93261719 -0.67749023 C36.82008485 -1.02614119 36.82008485 -1.02614119 41.66821289 3.26489258 C43.77332028 6.64882216 45.27516349 9.95316198 46.72558594 13.66040039 C47.6825792 15.43254628 48.66381279 17.19193303 49.67480469 18.93383789 C50.59064193 20.63270364 51.50333827 22.33326589 52.41308594 24.03540039 C56.54404913 31.68496602 60.7442263 39.28855624 65.03808594 46.84790039 C69.81414368 55.25980857 74.53683291 63.69951524 79.22558594 72.16040039 C84.84264285 82.29179234 90.50726323 92.39460251 96.21994019 102.47235107 C99.69249258 108.60018757 103.15891775 114.73147572 106.62402344 120.86352539 C107.51093872 122.43287842 107.51093872 122.43287842 108.41577148 124.03393555 C109.85243383 126.57605799 111.28903792 129.11821334 112.72558594 131.66040039 C112.7270525 131.00956356 112.72851906 130.35872673 112.73003006 129.68816757 C112.76707309 113.85577094 112.8260542 98.02363132 112.90948868 82.19141769 C112.94930726 74.5350789 112.98168534 66.8788433 112.99658203 59.22241211 C113.00958404 52.54946979 113.03651122 45.87675427 113.080199 39.20393968 C113.10284691 35.67029371 113.11849466 32.13692781 113.11746979 28.60320282 C113.11658681 24.65946915 113.14679142 20.71630894 113.1796875 16.77270508 C113.17214195 15.01296104 113.17214195 15.01296104 113.16444397 13.21766663 C113.17835678 12.1435704 113.19226959 11.06947418 113.206604 9.96282959 C113.21213476 8.56354784 113.21213476 8.56354784 113.21777725 7.13599777 C113.87861652 3.91436727 115.21029495 2.70823243 117.72558594 0.66040039 C119.66027832 0.15246582 119.66027832 0.15246582 121.69628906 0.14282227 C122.4638855 0.13021362 123.23148193 0.11760498 124.02233887 0.10461426 C124.8422229 0.11271118 125.66210693 0.12080811 126.50683594 0.12915039 C127.78258484 0.12341003 127.78258484 0.12341003 129.08410645 0.11755371 C130.87948798 0.11483581 132.67490918 0.12218857 134.47021484 0.13891602 C137.21639387 0.16032872 139.95995691 0.13911168 142.70605469 0.11352539 C144.4521542 0.11616869 146.1982521 0.12129372 147.94433594 0.12915039 C148.76421997 0.12105347 149.584104 0.11295654 150.42883301 0.10461426 C151.19642944 0.1172229 151.96402588 0.12983154 152.75488281 0.14282227 C153.76270813 0.14759583 153.76270813 0.14759583 154.79089355 0.15246582 C157.80036974 0.94257437 158.8427816 2.17869896 160.72558594 4.66040039 C161.11829877 7.71622374 161.26591589 10.41093974 161.23352051 13.46655273 C161.23976047 14.36552969 161.24600043 15.26450665 161.25242949 16.19072533 C161.26841171 19.20952795 161.2557347 22.22752897 161.24316406 25.24633789 C161.24858285 27.40790275 161.25570413 29.56946392 161.2644043 31.73101807 C161.28266941 37.60698721 161.27555685 43.48267604 161.26288795 49.35865021 C161.25277685 55.50139636 161.26214837 61.64411816 161.26843262 67.78686523 C161.27571452 78.10347819 161.26610701 88.41997668 161.24707031 98.73657227 C161.22530062 110.67226776 161.2323516 122.60768996 161.25437593 134.54337883 C161.2725144 144.78210226 161.27509584 155.02074331 161.26462126 165.25947762 C161.25837781 171.37857672 161.25757415 177.49754728 161.27076721 183.61663818 C161.28230242 189.36883112 161.27434237 195.12067093 161.25119019 200.87282562 C161.24589066 202.98681806 161.24743801 205.10084011 161.25624084 207.21482086 C161.26713067 210.09503427 161.25351209 212.97410777 161.23352051 215.85424805 C161.24244339 216.69587683 161.25136628 217.53750561 161.26055956 218.40463829 C161.21107288 222.06642077 161.06468446 224.20938288 158.83067703 227.18072128 C156.36469712 228.91407096 155.13075289 229.1480989 152.140625 229.11450195 C151.23999329 229.11419983 150.33936157 229.11389771 149.41143799 229.11358643 C148.44776306 229.09294128 147.48408813 229.07229614 146.49121094 229.05102539 C145.49804871 229.0453656 144.50488647 229.03970581 143.48162842 229.03387451 C140.31245535 229.01150065 137.14441674 228.96130145 133.97558594 228.91040039 C131.82586269 228.89033674 129.67612171 228.87208574 127.52636719 228.85571289 C122.25905365 228.81163278 116.99240084 228.74471072 111.72558594 228.66040039 C111.38530365 228.03205292 111.04502136 227.40370544 110.69442749 226.75631714 C104.70049009 215.69153114 98.63790238 204.67705898 92.36694336 193.76660156 C88.46087247 186.9651832 84.61389928 180.13225798 80.78808594 173.28540039 C70.68592117 155.21424131 60.48529437 137.200697 50.19287109 119.23730469 C49.55397949 118.12137939 48.91508789 117.0054541 48.25683594 115.85571289 C47.41475586 114.38642334 47.41475586 114.38642334 46.55566406 112.88745117 C45.06079599 110.25148984 43.58173982 107.60825519 42.11120605 104.95870972 C41.4398827 103.7494196 41.4398827 103.7494196 40.75499725 102.51569939 C40.41529152 101.90345072 40.07558578 101.29120205 39.72558594 100.66040039 C39.72319758 101.30185155 39.72080923 101.94330271 39.7183485 102.60419178 C39.65924672 118.20254314 39.58372789 133.80071515 39.48987103 149.3988924 C39.44487986 156.94202084 39.40547297 164.48510172 39.37915039 172.02832031 C39.35619707 178.60197508 39.32282921 185.17547973 39.27688438 191.74901551 C39.25291586 195.2306064 39.23421101 198.7120483 39.22797203 202.19371986 C39.22081717 206.07771779 39.19041386 209.96134171 39.15795898 213.84521484 C39.15939407 215.00327133 39.16082916 216.16132782 39.16230774 217.35447693 C39.14976959 218.41037018 39.13723145 219.46626343 39.12431335 220.55415344 C39.11739991 221.93269485 39.11739991 221.93269485 39.11034679 223.33908558 C38.72558594 225.66040039 38.72558594 225.66040039 37.44747639 227.45428753 C34.33892687 229.63169757 30.49027357 229.10670501 26.82324219 229.09399414 C25.94913193 229.09923599 25.07502167 229.10447784 24.17442322 229.10987854 C22.32600975 229.11630097 20.47755541 229.11495887 18.62915039 229.10644531 C15.8018301 229.09794173 12.97653433 229.12668187 10.14941406 229.15844727 C8.35319071 229.16005954 6.55696378 229.15948125 4.76074219 229.15649414 C3.91584732 229.16772812 3.07095245 229.1789621 2.20045471 229.1905365 C1.40960983 229.18115555 0.61876495 229.1717746 -0.19604492 229.16210938 C-0.88870956 229.16194321 -1.58137421 229.16177704 -2.29502869 229.16160583 C-5.34159313 228.39017714 -6.37466933 227.16851534 -8.27441406 224.66040039 C-8.6671269 221.60457704 -8.81474402 218.90986104 -8.78234863 215.85424805 C-8.7885886 214.95527109 -8.79482856 214.05629414 -8.80125761 213.13007545 C-8.81723983 210.11127283 -8.80456283 207.09327181 -8.79199219 204.07446289 C-8.79741097 201.91289803 -8.80453226 199.75133686 -8.81323242 197.58978271 C-8.83149754 191.71381357 -8.82438497 185.83812474 -8.81171608 179.96215057 C-8.80160498 173.81940442 -8.8109765 167.67668262 -8.81726074 161.53393555 C-8.82454265 151.2173226 -8.81493514 140.9008241 -8.79589844 130.58422852 C-8.77412875 118.64853302 -8.78117973 106.71311082 -8.80320406 94.77742195 C-8.82134252 84.53869852 -8.82392396 74.30005747 -8.81344938 64.06132317 C-8.80720593 57.94222406 -8.80640227 51.8232535 -8.81959534 45.7041626 C-8.83113054 39.95196966 -8.82317049 34.20012985 -8.80001831 28.44797516 C-8.79471878 26.33398272 -8.79626613 24.21996067 -8.80506897 22.10597992 C-8.81595879 19.22576651 -8.80234021 16.34669301 -8.78234863 13.46655273 C-8.79127152 12.62492395 -8.80019441 11.78329517 -8.80938768 10.91616249 C-8.75984732 7.25040746 -8.61751068 5.11380508 -6.37139511 2.14554691 C-4.04071707 0.49488899 -2.82778133 0.11734042 0 0 Z " fill="#010616" transform="translate(438.2744140625,1183.339599609375)"/>
<path d="M0 0 C1.26184113 -0.0112793 2.52368225 -0.02255859 3.82376099 -0.03417969 C5.21966782 -0.02640269 6.61557239 -0.01821002 8.01147461 -0.00964355 C9.48339531 -0.01506443 10.95531059 -0.0221869 12.42721558 -0.03088379 C16.42312285 -0.04912446 20.41861718 -0.04204676 24.41453171 -0.02936745 C28.59537625 -0.01924354 32.77618533 -0.02863142 36.95703125 -0.03491211 C43.97817333 -0.04219031 50.99914714 -0.03259635 58.02026367 -0.0135498 C66.13879284 0.00821936 74.25692021 0.0011681 82.37543964 -0.02085543 C89.34456224 -0.03900458 96.31356385 -0.04157015 103.28270245 -0.03110075 C107.44562555 -0.02486311 111.60835977 -0.0240375 115.77127075 -0.0372467 C119.6849868 -0.04879764 123.5981846 -0.04079389 127.51184464 -0.01766968 C128.94856022 -0.01237845 130.38531939 -0.01390351 131.82201767 -0.02272034 C133.78220823 -0.03364112 135.74249405 -0.01752125 137.70263672 0 C138.79990585 0.0015081 139.89717499 0.0030162 141.0276947 0.00457001 C144.54811636 0.63215205 145.72963725 1.66931905 147.85131836 4.50793457 C148.24913266 7.41873429 148.41290836 9.94342198 148.38256836 12.85168457 C148.38639526 13.65779175 148.39022217 14.46389893 148.39416504 15.29443359 C148.39688226 16.99565889 148.38953426 18.6969261 148.37280273 20.39807129 C148.35138826 22.99944353 148.37260855 25.59805429 148.39819336 28.19934082 C148.39555005 29.85429482 148.39042499 31.50924711 148.38256836 33.16418457 C148.39066528 33.94032104 148.39876221 34.71645752 148.40710449 35.51611328 C148.35210228 38.68989893 148.16954448 41.0065306 146.44976807 43.71624756 C142.41283155 46.4998022 138.55059123 46.03326996 133.75854492 45.96203613 C132.73383591 45.96262024 131.70912689 45.96320435 130.65336609 45.96380615 C127.26588076 45.96101913 123.879275 45.92989681 120.49194336 45.89855957 C118.14353923 45.89109941 115.79512888 45.88540542 113.44671631 45.88140869 C107.26518573 45.86613481 101.08403099 45.82683732 94.90264893 45.78259277 C88.59522587 45.74167823 82.28774211 45.7234058 75.98022461 45.70324707 C63.60373082 45.66034513 51.22761464 45.58998039 38.85131836 45.50793457 C38.85131836 59.03793457 38.85131836 72.56793457 38.85131836 86.50793457 C41.76878906 86.4869873 44.68625977 86.46604004 47.69213867 86.44445801 C57.3232861 86.37822741 66.9544435 86.33401488 76.58575821 86.30068588 C82.42619099 86.2797967 88.26639078 86.25145434 94.10668945 86.20617676 C99.74120122 86.16276712 105.37548866 86.13880749 111.01015472 86.1284256 C113.16160362 86.1210255 115.31304003 86.1065751 117.46439362 86.08501434 C120.47417389 86.05604571 123.48302304 86.05197589 126.49291992 86.05383301 C127.83188072 86.03226135 127.83188072 86.03226135 129.19789124 86.01025391 C135.19925397 86.05041525 135.19925397 86.05041525 138.40486145 88.29962158 C140.59947651 91.65015136 140.40345189 94.97999115 140.34741211 98.85168457 C140.34886734 99.65779175 140.35032257 100.46389893 140.3518219 101.29443359 C140.35016478 102.99568299 140.33862435 104.69694767 140.31787109 106.39807129 C140.28891622 108.99914353 140.29726493 111.59817672 140.31030273 114.19934082 C140.3040649 115.85429862 140.29567361 117.50925 140.28491211 119.16418457 C140.28784775 119.94032104 140.29078339 120.71645752 140.29380798 121.51611328 C140.24251799 124.45806987 140.07102746 126.9927168 138.90960693 129.71624756 C135.53109955 132.65715093 131.84192607 132.03075516 127.51464844 131.96203613 C126.55836044 131.96262024 125.60207245 131.96320435 124.61680603 131.96380615 C121.45111992 131.96101602 118.28637154 131.92987967 115.12084961 131.89855957 C112.92795832 131.8911005 110.73506037 131.88540599 108.54216003 131.88140869 C102.76666911 131.86612618 96.99157969 131.82682148 91.21624756 131.78259277 C84.28884428 131.73450812 77.36130684 131.71611856 70.43378448 131.69277954 C59.90601641 131.65397243 49.37912955 131.577336 38.85131836 131.50793457 C38.85131836 148.66793457 38.85131836 165.82793457 38.85131836 183.50793457 C46.68495117 183.47312988 54.51858398 183.4383252 62.58959961 183.40246582 C67.54338307 183.38714272 72.49713745 183.37270123 77.45092773 183.3614502 C85.31907191 183.34349564 93.18711166 183.32222353 101.05517578 183.28161621 C107.39641148 183.24909258 113.73753524 183.23109626 120.07884789 183.22330284 C122.50184072 183.21774676 124.92482723 183.20689755 127.3477726 183.1907444 C130.73361218 183.16906346 134.11898533 183.16596377 137.50488281 183.1673584 C138.51332748 183.15657257 139.52177216 183.14578674 140.56077576 183.13467407 C141.48204254 183.13879807 142.40330933 183.14292206 143.35249329 183.14717102 C144.15353139 183.14440564 144.95456949 183.14164026 145.77988148 183.13879108 C148.41808718 183.60893645 149.29118487 184.34985419 150.85131836 186.50793457 C151.14973315 189.48532593 151.27158904 192.24911668 151.24975586 195.22668457 C151.25406113 196.5081134 151.25406113 196.5081134 151.25845337 197.81542969 C151.26049417 199.62097842 151.25496319 201.42654926 151.24243164 203.23205566 C151.2263778 205.99769469 151.24227935 208.76187232 151.26147461 211.52746582 C151.25949218 213.2813753 151.25564851 215.03528387 151.24975586 216.78918457 C151.25582855 217.61736694 151.26190125 218.44554932 151.26815796 219.29882812 C151.19841932 224.98397537 151.19841932 224.98397537 149.71332455 227.22577 C147.01087206 229.08666008 144.93564094 228.88858019 141.67103577 228.89561462 C140.37691269 228.90551926 139.08278961 228.91542389 137.74945068 228.92562866 C136.31213285 228.92139037 134.87481592 228.91683248 133.4375 228.9119873 C131.92632033 228.9176885 130.41514498 228.92465178 128.90397644 228.93278503 C124.79651663 228.95075985 120.68926994 228.94953996 116.58178258 228.94384265 C113.1547257 228.9407569 109.72771013 228.94683642 106.30065912 228.9528814 C98.21668066 228.96693932 90.13280784 228.96535494 82.04882812 228.95397949 C73.70482497 228.94249771 65.3611432 228.95657195 57.01718241 228.98337597 C49.85701069 229.00551729 42.69693996 229.01217388 35.53673643 229.00629956 C31.25865101 229.0029249 26.98077161 229.00537852 22.70271492 229.02255058 C18.67987508 229.03799273 14.65751205 229.034095 10.63469124 229.01524544 C9.15765475 229.01155187 7.68058315 229.0146904 6.20357895 229.02513123 C4.18861673 229.03828811 2.17353184 229.02441846 0.15858459 229.00914001 C-0.96948073 229.00893073 -2.09754606 229.00872145 -3.25979519 229.00850582 C-6.14868164 228.50793457 -6.14868164 228.50793457 -8.51113987 227.02699375 C-10.88426101 223.37637994 -10.70128348 219.91490924 -10.65661621 215.70178223 C-10.66285617 214.80280527 -10.66909614 213.90382832 -10.67552519 212.97760963 C-10.69150741 209.95880701 -10.6788304 206.94080599 -10.66625977 203.92199707 C-10.67167855 201.76043221 -10.67879983 199.59887104 -10.6875 197.43731689 C-10.70576512 191.56134775 -10.69865255 185.68565892 -10.68598366 179.80968475 C-10.67587255 173.6669386 -10.68524408 167.5242168 -10.69152832 161.38146973 C-10.69881023 151.06485678 -10.68920271 140.74835828 -10.67016602 130.4317627 C-10.64839633 118.4960672 -10.65544731 106.560645 -10.67747164 94.62495613 C-10.6956101 84.3862327 -10.69819154 74.14759165 -10.68771696 63.90885735 C-10.68147351 57.78975824 -10.68066985 51.67078768 -10.69386292 45.55169678 C-10.70539812 39.79950384 -10.69743807 34.04766403 -10.67428589 28.29550934 C-10.66898636 26.1815169 -10.67053371 24.06749485 -10.67933655 21.9535141 C-10.69022637 19.07330069 -10.67660779 16.19422719 -10.65661621 13.31408691 C-10.6655391 12.47245813 -10.67446198 11.63082935 -10.68365526 10.76369667 C-10.63637699 7.26532531 -10.43797001 4.95020073 -8.50122833 1.98929596 C-5.47933404 0.08645699 -3.56553775 0.00490053 0 0 Z " fill="#384C48" transform="translate(1375.148681640625,1183.4920654296875)"/>
<path d="M0 0 C0.8146875 0.61875 1.629375 1.2375 2.46875 1.875 C14.0462396 11.59437398 22.72653753 29.39863451 26 44 C26.28701049 48.13090103 26.34212605 49.48681093 24 53 C22.12036133 53.81738281 22.12036133 53.81738281 19.76953125 54.453125 C18.87314941 54.69998047 17.97676758 54.94683594 17.05322266 55.20117188 C16.04565918 55.46478516 15.0380957 55.72839844 14 56 C12.89060059 56.29970703 11.78120117 56.59941406 10.63818359 56.90820312 C6.99406359 57.88076728 3.34233289 58.81856383 -0.3125 59.75 C-1.56095703 60.07871094 -2.80941406 60.40742187 -4.09570312 60.74609375 C-5.8987793 61.20435547 -5.8987793 61.20435547 -7.73828125 61.671875 C-8.82149658 61.9512793 -9.90471191 62.23068359 -11.02075195 62.51855469 C-15.65372141 63.26724073 -18.11338428 62.59107715 -22 60 C-22.7734375 57.93359375 -22.7734375 57.93359375 -23.375 55.4375 C-26.19797069 45.37614293 -31.49037593 36.72638991 -40.75 31.42578125 C-45.39286488 29.22420538 -49.82952696 27.32315457 -55 27 C-55.77472656 26.938125 -56.54945312 26.87625 -57.34765625 26.8125 C-68.0149182 26.32134549 -77.86616576 29.05554989 -86.0078125 36.09375 C-86.66523437 36.7228125 -87.32265625 37.351875 -88 38 C-88.95519531 38.91265625 -88.95519531 38.91265625 -89.9296875 39.84375 C-106.36432806 57.05427488 -105.60477255 85.44467363 -105.13623047 107.515625 C-104.42804284 125.62898311 -100.74938453 143.6696342 -88.6875 157.6875 C-79.42146653 165.66059857 -70.39118051 169.71292959 -58.01953125 169.34765625 C-47.40211397 168.12521105 -39.09510727 162.94119746 -32.3125 154.875 C-26.53786081 147.03986455 -23.75743792 137.75276844 -21.08984375 128.49609375 C-19.79524327 125.53104104 -18.91127442 124.41779569 -16 123 C-10.72518667 123.47730907 -6.01708022 125.31079795 -1.1015625 127.16015625 C-0.26660248 127.46948593 0.56835754 127.77881561 1.42861938 128.09751892 C4.07930834 129.08083201 6.72715983 130.07154473 9.375 131.0625 C11.1782028 131.73291325 12.9815864 132.40284045 14.78515625 133.07226562 C19.19221727 134.70922351 23.59674968 136.35282066 28 138 C23.47759575 162.14586495 13.16743611 185.88159483 -7 201 C-22.89036497 211.63862831 -40.25662348 216.42322955 -59.375 216.25 C-60.4777124 216.24178223 -61.5804248 216.23356445 -62.71655273 216.22509766 C-88.4659017 215.87108931 -108.1115567 206.8884433 -126.3359375 188.6640625 C-135.57390274 178.92163499 -141.92108418 167.36241597 -147 155 C-147.31807617 154.22591797 -147.63615234 153.45183594 -147.96386719 152.65429688 C-150.87977496 145.16253007 -152.45410966 137.66938659 -153.75 129.75 C-153.85772736 129.09692871 -153.96545471 128.44385742 -154.07644653 127.77099609 C-156.07530766 115.45650028 -156.71814627 103.46194996 -156 91 C-155.94924316 90.06720215 -155.89848633 89.1344043 -155.84619141 88.17333984 C-154.14750091 59.77259762 -147.05379075 31.86812312 -128 10 C-127.22914062 9.030625 -126.45828125 8.06125 -125.6640625 7.0625 C-113.35434647 -7.6993507 -92.68246689 -17.74020165 -73.73046875 -19.609375 C-46.44073952 -21.68711841 -21.34069909 -18.4806054 0 0 Z " fill="#132526" transform="translate(1302,1200)"/>
<path d="M0 0 C2.10073853 -0.36076355 2.10073853 -0.36076355 4.72509766 -0.34057617 C5.70596344 -0.34034958 6.68682922 -0.34012299 7.69741821 -0.33988953 C8.75891083 -0.32440567 9.82040344 -0.30892181 10.9140625 -0.29296875 C11.99883881 -0.28872391 13.08361511 -0.28447906 14.20126343 -0.28010559 C17.67609167 -0.263273 21.15034618 -0.22561189 24.625 -0.1875 C26.97655414 -0.17245911 29.32811735 -0.15876967 31.6796875 -0.14648438 C37.45332173 -0.11335454 43.22661989 -0.06310982 49 0 C50.49385269 4.74633535 51.98715299 9.49284405 53.47998047 14.23950195 C53.98602011 15.84827161 54.49220076 17.45699692 54.99853516 19.06567383 C57.6702326 27.55426501 60.33073756 36.04559799 62.93867493 44.55404663 C64.05854365 48.19008189 65.19073559 51.82216087 66.3269043 55.453125 C66.54463973 56.1494167 66.76237516 56.84570841 66.98670864 57.56309986 C67.43792098 59.0059922 67.88919634 60.44886483 68.34053421 61.89171791 C69.34076089 65.08939704 70.34038535 68.2872644 71.34008789 71.48510742 C71.72721451 72.72326706 72.11434113 73.9614267 72.51319885 75.23710632 C74.01782018 80.04941743 75.52214087 84.86182251 77.02643681 89.67423534 C78.16013351 93.30101843 79.29393868 96.92776754 80.42797852 100.55444336 C81.54275635 104.11953678 82.65724427 107.68472072 83.7715435 111.24996376 C84.18958915 112.58734598 84.60773335 113.9246974 85.02598763 115.26201439 C87.41048776 122.88639833 89.77938915 130.51512134 92.11546326 138.15449524 C93.34952981 142.12441765 94.66537227 146.06284818 96 150 C96.20753906 149.18402344 96.41507813 148.36804687 96.62890625 147.52734375 C98.83905385 139.02891007 101.29114694 130.62575006 103.86938477 122.23217773 C106.68871034 113.04875198 109.45212416 103.84912289 112.20761108 94.64639282 C115.94116894 82.17718671 119.6808526 69.71025748 123.48608398 57.26269531 C125.07698877 52.05222818 126.65024518 46.83679192 128.2109375 41.6171875 C128.40526871 40.96744965 128.59959991 40.31771179 128.79981995 39.64828491 C129.74504861 36.48729057 130.6887052 33.3258512 131.62963867 30.16357422 C134.64480689 20.07049099 137.82654035 10.0492889 141 0 C156.84 0 172.68 0 189 0 C192.37500536 6.75001073 192.37500536 6.75001073 191.04638672 10.74731445 C190.76095001 11.64252808 190.47551331 12.5377417 190.181427 13.46008301 C189.85085297 14.41813843 189.52027893 15.37619385 189.1796875 16.36328125 C188.68491409 17.88242126 188.68491409 17.88242126 188.18014526 19.43225098 C187.09942799 22.73301465 185.9876006 26.02236151 184.875 29.3125 C184.12595828 31.58032312 183.37889648 33.84880112 182.63378906 36.11791992 C180.7860833 41.72791874 178.91361671 47.32924154 177.03137207 52.92773438 C175.54882492 57.34396667 174.08262795 61.7655683 172.6171875 66.1875 C171.23733749 70.34764688 169.85553267 74.5069832 168.45263672 78.65942383 C168.05061035 79.85075928 167.64858398 81.04209473 167.234375 82.26953125 C166.89631836 83.26573486 166.55826172 84.26193848 166.20996094 85.28833008 C165.17749901 88.45550497 164.19350294 91.6303809 163.22314453 94.81689453 C160.92309984 102.32059708 158.47046397 109.77036707 156.0032444 117.22031975 C155.17043463 119.7352838 154.33935747 122.25081483 153.50871277 124.76649475 C152.32461804 128.35240309 151.14001785 131.93814373 149.95498657 135.52374268 C139.78708163 166.29390541 129.73146081 197.08830095 120 228 C103.17 228 86.34 228 69 228 C42.51508651 147.61561732 42.51508651 147.61561732 35.5 126 C35.25425232 125.24288727 35.00850464 124.48577454 34.75531006 123.70571899 C32.2080287 115.85354011 29.67623368 107.99644414 27.15234375 100.13671875 C26.68881468 98.69465741 26.22527325 97.25260004 25.76171875 95.81054688 C24.91909542 93.18901818 24.07963873 90.56655219 23.2421875 87.94335938 C21.59981716 82.82454311 19.92628719 77.73965106 18.03515625 72.70703125 C16.39121211 68.26093704 15.01899369 63.76086273 13.7109375 59.20703125 C11.76514318 52.44210381 9.63930103 45.75231899 7.4140625 39.07421875 C7.10507019 38.143284 6.79607788 37.21234924 6.47772217 36.25320435 C5.20198018 32.41313256 3.92379922 28.57398664 2.63134766 24.73950195 C1.67452189 21.89577413 0.73076152 19.0479854 -0.2109375 16.19921875 C-0.50664642 15.33262131 -0.80235535 14.46602386 -1.10702515 13.57316589 C-1.37125275 12.76744644 -1.63548035 11.96172699 -1.90771484 11.1315918 C-2.26148697 10.07599312 -2.26148697 10.07599312 -2.62240601 8.99906921 C-3.34171583 5.19087804 -2.11497334 3.17246001 0 0 Z " fill="#000315" transform="translate(625,1184)"/>
<path d="M0 0 C3.95014864 2.87283537 6.94597626 6.14267912 10.0859375 9.8359375 C12.73529679 12.83133556 15.60183954 15.57898188 18.49609375 18.3359375 C20 20 20 20 20 22 C20.99 22.33 21.98 22.66 23 23 C24.70925702 24.62295903 26.37166102 26.29586746 28 28 C72.17952634 72.72208193 153.53665063 91.07704893 212.55175781 107.32128906 C215.15050863 108.04172457 217.7433932 108.78098917 220.3359375 109.5234375 C243.39617256 116.09944557 266.62959259 122.07085147 289.859375 128.015625 C302.19082208 131.17378407 314.44661086 134.50006007 326.6484375 138.12890625 C331.17778061 139.47417216 335.71804727 140.77723732 340.26295471 142.06861877 C351.68713056 145.31526849 363.07206525 148.67866217 374.4375 152.125 C375.35586639 152.40345764 376.27423279 152.68191528 377.22042847 152.96881104 C382.91404913 154.6968816 388.60549812 156.43196698 394.29528809 158.17260742 C396.04487729 158.70782048 397.79462281 159.24252292 399.54455566 159.77661133 C449.99250502 175.17891691 499.31690228 193.39330274 547 216 C547.61748108 216.29241577 548.23496216 216.58483154 548.87115479 216.8861084 C586.08322477 234.55330393 622.17558342 256.31371651 653.24462891 283.515625 C654.55219946 284.62133139 655.88737529 285.69455188 657.23583984 286.75 C665.55476259 293.31140386 672.97236211 300.66809875 680.43457031 308.17382812 C682.62084876 310.3708284 684.81761938 312.55692678 687.015625 314.7421875 C694.47320136 322.19274618 701.49812217 329.69305285 708 338 C708.92232975 339.09071561 709.85203165 340.17529535 710.79296875 341.25 C723.20816834 355.50823901 734.0261149 370.95817043 744 387 C744.37398926 387.59635254 744.74797852 388.19270508 745.13330078 388.80712891 C766.56206818 423.10660376 796.69230155 473.46190711 796 515 C793.29790469 513.64895235 793.00795508 511.85230848 791.9140625 509.15625 C790.51633124 505.8590378 788.8802175 502.68934805 787.26171875 499.49609375 C786.46050574 497.91103148 785.67011574 496.32041511 784.89453125 494.72265625 C784.38986328 493.68431641 784.38986328 493.68431641 783.875 492.625 C783.58367188 492.01914062 783.29234375 491.41328125 782.9921875 490.7890625 C782.03232263 488.93989643 782.03232263 488.93989643 780.60058594 487.25366211 C778.75676608 484.657521 777.62344365 482.09176139 776.3984375 479.15234375 C775.91318604 477.99951904 775.42793457 476.84669434 774.92797852 475.65893555 C774.6749295 475.05189789 774.42188049 474.44486023 774.16116333 473.81942749 C772.8279596 470.62798795 771.47045843 467.44692773 770.11328125 464.265625 C769.84400314 463.63403976 769.57472504 463.00245453 769.29728699 462.35173035 C751.64465726 421.03951169 726.62001131 383.65543519 697 350 C696.175 349.0615625 695.35 348.123125 694.5 347.15625 C682.9740971 334.33368302 670.91658358 321.37320204 657.27734375 310.78125 C655.03785561 309.02960919 652.96410935 307.1771935 650.875 305.25 C583.37287997 244.71429093 491.01853953 211.57328414 289.32421875 150.5703125 C282.92374127 148.99842318 276.55942069 147.30222195 270.19546509 145.58917236 C267.82100766 144.95196583 265.44518991 144.32002521 263.0690918 143.68896484 C76.00545559 93.97930137 76.00545559 93.97930137 31 55 C30.13632812 54.26910156 29.27265625 53.53820312 28.3828125 52.78515625 C20.61114156 46.03971486 14.18981873 38.98225625 11 29 C11 27.68 11 26.36 11 25 C10.34 25 9.68 25 9 25 C8.3503125 23.1746875 8.3503125 23.1746875 7.6875 21.3125 C6.77130335 18.85210335 5.88211747 16.8084409 4.5 14.5625 C1.90368081 10.12712138 0 5.16497313 0 0 Z " fill="#4F615B" transform="translate(501,358)"/>
<path d="M0 0 C0.72703125 0.4125 1.4540625 0.825 2.203125 1.25 C2.97140625 1.6625 3.7396875 2.075 4.53125 2.5 C16.39073031 9.59955284 23.99109055 21.11238054 27.7734375 34.22753906 C28.84957065 38.52993646 29.5728564 42.86333051 30.203125 47.25 C30.33332031 48.06210938 30.46351563 48.87421875 30.59765625 49.7109375 C33.59714134 72.50702419 32.00101792 100.44168078 18.87109375 120.0859375 C11.42003863 129.7531144 2.77399623 135.39304292 -8.796875 139.25 C-23.70113762 140.4570588 -36.86010275 140.14889361 -48.67578125 130.14453125 C-49.37574219 129.51933594 -50.07570313 128.89414063 -50.796875 128.25 C-51.48652344 127.67636719 -52.17617188 127.10273437 -52.88671875 126.51171875 C-64.46106357 116.13701811 -69.32073356 99.25757916 -70.796875 84.25 C-70.91781248 81.55584664 -71.00642981 78.88571958 -71.03515625 76.19140625 C-71.043228 75.44398666 -71.05129974 74.69656708 -71.05961609 73.92649841 C-71.07335665 72.35084275 -71.08412295 70.77515857 -71.09204102 69.19946289 C-71.10348066 67.62417562 -71.12380314 66.04892461 -71.15356445 64.47387695 C-71.42306933 50.14495015 -70.0397023 35.69637259 -63.171875 22.8125 C-62.82979004 22.15838135 -62.48770508 21.5042627 -62.13525391 20.83032227 C-50.64062409 -0.06783266 -22.20053348 -10.31250588 0 0 Z " fill="#C2BCAC" transform="translate(952.796875,1229.75)"/>
<path d="M0 0 C25.32218356 8.21412645 50.45031499 16.39514313 74 29 C74.60247559 29.31791504 75.20495117 29.63583008 75.82568359 29.96337891 C103.94759813 44.90764786 126.64855893 68.1445795 137.21875 98.5 C138.26276946 101.98006485 139.15570414 105.46646548 140 109 C140.2990625 110.1034375 140.598125 111.206875 140.90625 112.34375 C149.9527738 150.87524025 139.59625629 193.8962773 119.23876953 227.08154297 C110.33956539 240.86355837 98.55419636 253.50646719 86 264 C85.67 263.34 85.34 262.68 85 262 C85.61743164 260.34619141 85.61743164 260.34619141 86.66015625 258.3515625 C87.03897949 257.60406738 87.41780273 256.85657227 87.80810547 256.08642578 C88.22205566 255.27415527 88.63600586 254.46188477 89.0625 253.625 C105.68443045 219.61118593 108.85938881 176.49153051 96.53564453 140.54663086 C88.62122158 118.87347084 73.99386427 99.90200104 54.54394531 87.3840332 C50.77149866 84.88794179 49.55074709 83.15100528 48 79 C47.18672594 77.54329824 46.33601272 76.1069994 45.453125 74.69140625 C44.94547607 73.87381836 44.43782715 73.05623047 43.91479492 72.21386719 C43.3654126 71.33891602 42.81603027 70.46396484 42.25 69.5625 C41.67290283 68.63727539 41.09580566 67.71205078 40.5012207 66.75878906 C32.66865417 54.22752789 24.70184673 41.78163204 16.734375 29.3359375 C16.37567825 28.77559814 16.01698151 28.21525879 15.64741516 27.63793945 C13.9047786 24.91591327 12.16137563 22.19438343 10.41674805 19.47363281 C9.17109412 17.52986167 7.92770824 15.58463447 6.68701172 13.63769531 C5.60992424 11.95363552 4.52387574 10.27525112 3.42626953 8.60449219 C2.96720215 7.89711914 2.50813477 7.18974609 2.03515625 6.4609375 C1.43973022 5.55674072 1.43973022 5.55674072 0.83227539 4.63427734 C0 3 0 3 0 0 Z " fill="#0D1F21" transform="translate(826,906)"/>
<path d="M0 0 C0.85098267 -0.00945648 1.70196533 -0.01891296 2.57873535 -0.02865601 C3.49441284 -0.02258331 4.41009033 -0.01651062 5.35351562 -0.01025391 C6.29658569 -0.01312408 7.23965576 -0.01599426 8.21130371 -0.01895142 C10.20516561 -0.02099287 12.1990475 -0.01545734 14.19287109 -0.00292969 C17.24817607 0.0131227 20.30215814 -0.00277574 23.35742188 -0.02197266 C25.29362272 -0.01999024 27.22982273 -0.0161466 29.16601562 -0.01025391 C30.53953186 -0.01936295 30.53953186 -0.01936295 31.9407959 -0.02865601 C32.79177856 -0.01919952 33.64276123 -0.00974304 34.51953125 0 C35.64180115 0.00358017 35.64180115 0.00358017 36.78674316 0.00723267 C39.34676266 0.50152091 40.12513481 1.38566197 41.75976562 3.38818359 C42.05483585 6.37998644 42.16419822 9.16368692 42.14071655 12.15673828 C42.14773651 13.51723108 42.14773651 13.51723108 42.15489829 14.90520859 C42.16690382 17.95697219 42.15736934 21.00829133 42.14794922 24.06005859 C42.15201245 26.24280053 42.15735292 28.42554041 42.16387939 30.60827637 C42.17758834 36.54617834 42.17223956 42.48392443 42.16274214 48.42182922 C42.15516407 54.6264387 42.16218598 60.83103455 42.16690063 67.03564453 C42.17271384 78.12468171 42.16337176 89.21365738 42.14812262 100.3026824 C42.13471897 110.36116596 42.13704693 120.41954566 42.15087891 130.47802734 C42.16692612 142.15290622 42.17291343 153.82772446 42.16404212 165.50261307 C42.15935713 171.6848322 42.1587634 177.86697976 42.16865158 184.04919434 C42.17729656 189.860409 42.17134453 195.6714269 42.15396881 201.48262024 C42.14999075 203.61961032 42.15116042 205.75661686 42.15775681 207.89360046 C42.16591031 210.80250271 42.15572588 213.71076767 42.14071655 216.61962891 C42.1507548 217.89913736 42.1507548 217.89913736 42.16099584 219.20449448 C42.1030015 224.96769889 42.1030015 224.96769889 40.35948431 227.1036129 C38.30123469 228.75638295 37.13981915 228.76800817 34.51953125 228.77636719 C33.66854858 228.78582367 32.81756592 228.79528015 31.9407959 228.80502319 C31.02511841 228.7989505 30.10944092 228.79287781 29.16601562 228.78662109 C28.22294556 228.78949127 27.27987549 228.79236145 26.30822754 228.7953186 C24.31436564 228.79736006 22.32048375 228.79182452 20.32666016 228.77929688 C17.27135518 228.76324448 14.21737311 228.77914292 11.16210938 228.79833984 C9.22590853 228.79635743 7.28970852 228.79251378 5.35351562 228.78662109 C4.43783813 228.79269379 3.52216064 228.79876648 2.57873535 228.80502319 C1.72775269 228.79556671 0.87677002 228.78611023 0 228.77636719 C-1.1222699 228.77278702 -1.1222699 228.77278702 -2.26721191 228.76913452 C-4.82723141 228.27484628 -5.60560356 227.39070522 -7.24023438 225.38818359 C-7.5353046 222.39638075 -7.64466697 219.61268027 -7.6211853 216.61962891 C-7.62586527 215.71263371 -7.63054525 214.8056385 -7.63536704 213.8711586 C-7.64737257 210.819395 -7.63783809 207.76807586 -7.62841797 204.71630859 C-7.6324812 202.53356666 -7.63782167 200.35082678 -7.64434814 198.16809082 C-7.65805709 192.23018885 -7.65270831 186.29244276 -7.64321089 180.35453796 C-7.63563282 174.14992848 -7.64265473 167.94533264 -7.64736938 161.74072266 C-7.65318259 150.65168548 -7.64384051 139.56270981 -7.62859137 128.47368479 C-7.61518772 118.41520123 -7.61751568 108.35682153 -7.63134766 98.29833984 C-7.64739487 86.62346097 -7.65338218 74.94864273 -7.64451087 63.27375412 C-7.63982588 57.09153498 -7.63923215 50.90938743 -7.64912033 44.72717285 C-7.65776531 38.91595818 -7.65181328 33.10494029 -7.63443756 27.29374695 C-7.6304595 25.15675687 -7.63162917 23.01975032 -7.63822556 20.88276672 C-7.64637906 17.97386448 -7.63619463 15.06559952 -7.6211853 12.15673828 C-7.62787747 11.30373264 -7.63456963 10.45072701 -7.64146459 9.57187271 C-7.58347025 3.8086683 -7.58347025 3.8086683 -5.83995306 1.67275429 C-3.78170344 0.01998424 -2.6202879 0.00835902 0 0 Z " fill="#000214" transform="translate(349.240234375,1183.61181640625)"/>
<path d="M0 0 C0.82773422 -0.01268417 1.65546844 -0.02536835 2.50828552 -0.03843689 C3.39895218 -0.03550125 4.28961884 -0.03256561 5.20727539 -0.02954102 C6.12577774 -0.03478287 7.04428009 -0.04002472 7.99061584 -0.04542542 C9.93318674 -0.05184886 11.87579651 -0.05050445 13.81835938 -0.04199219 C16.79050023 -0.03348856 19.76071544 -0.06222833 22.73266602 -0.09399414 C24.62003523 -0.0956064 26.50740785 -0.09502816 28.39477539 -0.09204102 C29.72773903 -0.10889198 29.72773903 -0.10889198 31.08763123 -0.12608337 C31.91851761 -0.11670242 32.74940399 -0.10732147 33.60546875 -0.09765625 C34.33366318 -0.09749008 35.0618576 -0.09732391 35.81211853 -0.09715271 C38.91751986 0.66012561 39.93884021 1.84810959 41.86743164 4.40405273 C42.25800389 7.47454383 42.4034838 10.18489982 42.36863708 13.25489807 C42.37693868 14.61054718 42.37693868 14.61054718 42.38540798 15.99358314 C42.39904497 19.02855207 42.38402866 22.06270298 42.36914062 25.09765625 C42.37292266 27.27069448 42.37842174 29.4437303 42.38551331 31.61676025 C42.39949934 37.52366334 42.38827628 43.43027618 42.37180209 49.33716321 C42.35797569 55.51106842 42.36440885 61.68495637 42.36793518 67.85887146 C42.370639 78.22676281 42.35714612 88.59453851 42.33398438 98.96240234 C42.30736657 110.96058869 42.30562914 122.95851526 42.31737274 134.95672089 C42.32813954 146.4854897 42.32197253 158.01418835 42.30781746 169.54295158 C42.30204883 174.45559275 42.3021472 179.36818272 42.30688286 184.28082466 C42.31164366 190.06169554 42.30158816 195.8423538 42.27992821 201.6231842 C42.27434818 203.74888326 42.27390611 205.87460271 42.27888107 208.00030327 C42.28480543 210.89383774 42.27238371 213.78671586 42.25511169 216.68019104 C42.26112174 217.52862361 42.26713179 218.37705618 42.27332395 219.25119883 C42.21076037 224.9837888 42.21076037 224.9837888 40.46697575 227.11833137 C38.40889737 228.77262482 37.24822704 228.78387494 34.62719727 228.79223633 C33.7762146 228.80169281 32.92523193 228.81114929 32.04846191 228.82089233 C31.13278442 228.81481964 30.21710693 228.80874695 29.27368164 228.80249023 C28.33061157 228.80536041 27.3875415 228.80823059 26.41589355 228.81118774 C24.42203165 228.8132292 22.42814976 228.80769367 20.43432617 228.79516602 C17.3790212 228.77911363 14.32503912 228.79501206 11.26977539 228.81420898 C9.33357455 228.81222657 7.39737453 228.80838292 5.46118164 228.80249023 C4.54550415 228.80856293 3.62982666 228.81463562 2.68640137 228.82089233 C1.8354187 228.81143585 0.98443604 228.80197937 0.10766602 228.79223633 C-1.01460388 228.78865616 -1.01460388 228.78865616 -2.1595459 228.78500366 C-4.71956539 228.29071542 -5.49793755 227.40657436 -7.13256836 225.40405273 C-7.42763858 222.41224989 -7.53700095 219.62854941 -7.51351929 216.63549805 C-7.51819926 215.72850285 -7.52287923 214.82150764 -7.52770102 213.88702774 C-7.53970655 210.83526414 -7.53017207 207.783945 -7.52075195 204.73217773 C-7.52481518 202.5494358 -7.53015566 200.36669592 -7.53668213 198.18395996 C-7.55039107 192.24605799 -7.54504229 186.3083119 -7.53554487 180.3704071 C-7.5279668 174.16579762 -7.53498872 167.96120178 -7.53970337 161.7565918 C-7.54551657 150.66755462 -7.53617449 139.57857895 -7.52092536 128.48955393 C-7.50752171 118.43107037 -7.50984966 108.37269067 -7.52368164 98.31420898 C-7.53972885 86.63933011 -7.54571616 74.96451187 -7.53684485 63.28962326 C-7.53215986 57.10740412 -7.53156613 50.92525657 -7.54145432 44.74304199 C-7.5500993 38.93182732 -7.54414726 33.12080943 -7.52677155 27.30961609 C-7.52279348 25.17262601 -7.52396315 23.03561946 -7.53055954 20.89863586 C-7.53871305 17.98973362 -7.52852862 15.08146866 -7.51351929 12.17260742 C-7.52021145 11.31960178 -7.52690362 10.46659615 -7.53379858 9.58774185 C-7.47579465 3.82358572 -7.47579465 3.82358572 -5.72949374 1.689044 C-3.70117767 0.05692739 -2.58359153 0.01919044 0 0 Z " fill="#1D3030" transform="translate(1072.132568359375,1183.595947265625)"/>
<path d="M0 0 C1.39120471 0.00015906 2.78241534 0.00585033 4.17358398 0.01586914 C4.90463852 0.01728409 5.63569305 0.01869904 6.38890076 0.02015686 C8.73253406 0.02577131 11.07607313 0.03832617 13.41967773 0.05102539 C15.00496282 0.05603853 16.59024939 0.06060176 18.17553711 0.06469727 C22.06945383 0.07574542 25.96329979 0.09301967 29.85717773 0.11352539 C30.11257324 1.1430835 30.36796875 2.1726416 30.63110352 3.23339844 C32.38325656 10.2797583 34.15953484 17.31621992 36.03833008 24.33007812 C39.73598753 38.16441721 42.84026285 52.11704515 45.85717773 66.11352539 C48.407618 59.03239367 50.13246261 51.90295835 51.73309326 44.55307007 C52.48002474 41.12786766 53.24426881 37.70654918 54.00952148 34.28540039 C54.16306091 33.59846603 54.31660034 32.91153168 54.47479248 32.20378113 C55.97038727 25.54714471 57.57614192 18.91955497 59.23217773 12.30102539 C59.48265869 11.29418701 59.73313965 10.28734863 59.99121094 9.25 C61.7263741 2.37513265 61.7263741 2.37513265 62.85717773 0.11352539 C67.37783202 0.06414839 71.8983299 0.02781716 76.41918945 0.00366211 C77.95762872 -0.00640579 79.49604881 -0.02006107 81.03442383 -0.03735352 C83.24361906 -0.06156778 85.45256168 -0.07294952 87.66186523 -0.08178711 C88.3515036 -0.09210968 89.04114197 -0.10243225 89.75167847 -0.11306763 C91.4551868 -0.11346939 93.15803716 -0.00838486 94.85717773 0.11352539 C97.29856847 2.55491612 97.10801661 3.16961201 97.11114502 6.51660156 C97.11678467 7.44201752 97.12242432 8.36743347 97.12823486 9.32089233 C97.1241864 10.33914093 97.12013794 11.35738953 97.1159668 12.40649414 C97.11947144 13.47646637 97.12297607 14.5464386 97.12658691 15.64883423 C97.13541792 19.19962985 97.12955018 22.75022761 97.12280273 26.30102539 C97.12414899 28.75960326 97.12608919 31.21818086 97.12860107 33.67675781 C97.1315542 38.83506804 97.12724861 43.99330912 97.11791992 49.15161133 C97.10652535 55.77654017 97.11308381 62.40130697 97.12506485 69.02622986 C97.13227834 74.10470815 97.12999786 79.18314777 97.12480927 84.2616272 C97.12347136 86.70496642 97.12512539 89.14830911 97.12976837 91.59164429 C97.13482518 95.00137687 97.12713513 98.41084393 97.1159668 101.82055664 C97.12001526 102.83880524 97.12406372 103.85705383 97.12823486 104.90615845 C97.12259521 105.8315744 97.11695557 106.75699036 97.11114502 107.71044922 C97.11039097 108.51718582 97.10963692 109.32392242 97.10886002 110.15510559 C96.85717773 112.11352539 96.85717773 112.11352539 94.85717773 114.11352539 C92.81005859 114.35644531 92.81005859 114.35644531 90.32202148 114.34399414 C89.43063477 114.34206055 88.53924805 114.34012695 87.62084961 114.33813477 C86.68821289 114.32588867 85.75557617 114.31364258 84.79467773 114.30102539 C83.85817383 114.30038086 82.92166992 114.29973633 81.95678711 114.29907227 C74.99736997 114.25371763 74.99736997 114.25371763 73.85717773 113.11352539 C73.73348449 111.12001109 73.67921383 109.12216069 73.65185547 107.125 C73.62193764 105.20312111 73.62193764 105.20312111 73.59141541 103.24241638 C73.57442976 101.83356856 73.557551 100.42471944 73.54077148 99.01586914 C73.52020858 97.58239634 73.49921229 96.1489297 73.47779846 94.71546936 C73.42250914 90.93599419 73.37313028 87.15646369 73.32495117 83.37689209 C73.27478608 79.52277684 73.21907402 75.6687423 73.16381836 71.81469727 C73.05615294 64.24770825 72.95472677 56.68065229 72.85717773 49.11352539 C71.77107089 53.92077881 70.68514436 58.72807294 69.59936523 63.53540039 C69.43883541 64.24614464 69.27830559 64.95688889 69.11291122 65.68917084 C67.29677352 73.73069311 65.48203922 81.77251798 63.67749023 89.81665039 C63.38874023 91.1018457 63.09999023 92.38704102 62.80249023 93.71118164 C62.38070117 95.58914725 61.95900062 97.46713321 61.53881836 99.34545898 C61.10729032 101.27367326 60.67367959 103.20142108 60.23999023 105.12915039 C59.99651855 106.21486328 59.75304688 107.30057617 59.50219727 108.41918945 C58.85717773 111.11352539 58.85717773 111.11352539 57.85717773 114.11352539 C50.26717773 114.11352539 42.67717773 114.11352539 34.85717773 114.11352539 C33.1301797 108.06903226 31.57405568 102.03489173 30.10717773 95.92602539 C29.84912354 94.85336426 29.59106934 93.78070312 29.32519531 92.67553711 C26.9838607 82.83895997 24.85025546 72.96153101 22.77416992 63.06591797 C22.53730469 61.93951904 22.30043945 60.81312012 22.05639648 59.65258789 C21.84845459 58.65437012 21.6405127 57.65615234 21.42626953 56.62768555 C20.87668205 54.00706372 20.87668205 54.00706372 19.85717773 51.11352539 C19.84909088 51.87329681 19.84100403 52.63306824 19.83267212 53.41586304 C19.75481046 60.56743972 19.66754588 67.71880989 19.56965065 74.87013817 C19.51965221 78.5469318 19.47332281 82.22369621 19.43530273 85.90063477 C19.39849427 89.44746242 19.35214706 92.9940476 19.29911423 96.54066849 C19.28054652 97.89544049 19.26544736 99.25026452 19.25383377 100.60511398 C19.23701264 102.49913395 19.20684157 104.39302127 19.17602539 106.28686523 C19.16270172 107.36608246 19.14937805 108.44529968 19.13565063 109.55722046 C18.85717773 112.11352539 18.85717773 112.11352539 16.85717773 114.11352539 C14.81005859 114.35644531 14.81005859 114.35644531 12.32202148 114.34399414 C11.43063477 114.34206055 10.53924805 114.34012695 9.62084961 114.33813477 C8.68821289 114.32588867 7.75557617 114.31364258 6.79467773 114.30102539 C5.38992188 114.30005859 5.38992188 114.30005859 3.95678711 114.29907227 C-3.00263003 114.25371763 -3.00263003 114.25371763 -4.14282227 113.11352539 C-4.2405984 111.66103764 -4.26913957 110.20382172 -4.26980591 108.74804688 C-4.27262573 107.80573212 -4.27544556 106.86341736 -4.27835083 105.89254761 C-4.2763266 104.85043121 -4.27430237 103.80831482 -4.2722168 102.73461914 C-4.27484528 101.09820969 -4.27484528 101.09820969 -4.27752686 99.42874146 C-4.2819479 95.80282018 -4.27900649 92.17694721 -4.27563477 88.55102539 C-4.27630773 86.04378246 -4.2772777 83.53653959 -4.27853394 81.02929688 C-4.28001125 75.76667788 -4.27794987 70.50407157 -4.27319336 65.24145508 C-4.26775077 59.14924337 -4.26951345 53.05706513 -4.27501976 46.96485424 C-4.28009669 41.11451521 -4.27956931 35.26418894 -4.27663803 29.41384888 C-4.27596851 26.91944372 -4.27679805 24.42503771 -4.27911758 21.93063354 C-4.28164262 18.45120953 -4.27780561 14.97185077 -4.2722168 11.49243164 C-4.27424103 10.45031525 -4.27626526 9.40819885 -4.27835083 8.33450317 C-4.27553101 7.39218842 -4.27271118 6.44987366 -4.26980591 5.47900391 C-4.26924037 4.24344505 -4.26924037 4.24344505 -4.26866341 2.98292542 C-4.0503058 -0.26082866 -3.31886753 0.11988452 0 0 Z " fill="#4D6C60" transform="translate(1127.142822265625,1044.886474609375)"/>
<path d="M0 0 C1.6265639 -0.06492974 3.25319098 -0.12829983 4.87988281 -0.18994141 C5.6197644 -0.2447467 6.359646 -0.299552 7.12194824 -0.35601807 C10.08740844 -0.43374842 12.31665039 -0.31021206 14.58776855 1.70504761 C16.91616284 4.66377538 18.8013846 7.82591207 20.23925781 11.31005859 C21.68268824 14.63656692 23.32663187 17.6977302 25.23925781 20.78662109 C25.93921875 21.95837891 25.93921875 21.95837891 26.65332031 23.15380859 C27.89903682 25.14258408 29.21900831 27.02592025 30.61425781 28.91162109 C36.98925781 37.57666964 36.98925781 37.57666964 36.98925781 41.28662109 C19.18286319 42.16490075 1.37646216 43.04305045 -16.42994595 43.92105675 C-24.70289329 44.32898576 -32.97583871 44.73695359 -41.2487793 45.14501953 C-112.46285902 48.65764089 -112.46285902 48.65764089 -146.01074219 50.28662109 C-145.02074219 49.79162109 -145.02074219 49.79162109 -144.01074219 49.28662109 C-153.09782436 33.7167092 -153.09782436 33.7167092 -162.64355469 18.42724609 C-164.5502082 15.44197145 -166.29078416 12.38254554 -168.01074219 9.28662109 C-166.22123509 7.49711399 -163.53273123 7.96421573 -161.10498047 7.82177734 C-159.8269455 7.74507813 -158.54891052 7.66837891 -157.23214722 7.58935547 C-155.80679671 7.50903435 -154.38143203 7.42896445 -152.95605469 7.34912109 C-151.46874939 7.26271788 -149.98145509 7.17612529 -148.49417114 7.08935547 C-131.18023116 6.0905758 -113.85795691 5.24652042 -96.53536987 4.41404724 C-93.84476617 4.28465047 -91.15419146 4.15466463 -88.46362305 4.02453613 C-47.55229689 2.047102 -47.55229689 2.047102 -27.37945557 1.16259766 C-25.50908194 1.08046215 -23.63875804 0.99718394 -21.76849365 0.91259766 C-16.94987832 0.69604576 -12.13229659 0.51222881 -7.31091309 0.37030029 C-4.8712435 0.28154619 -2.43718525 0.14068612 0 0 Z " fill="#83897F" transform="translate(1155.0107421875,429.71337890625)"/>
<path d="M0 0 C0.69097275 0.00404846 1.3819455 0.00809692 2.09385681 0.01226807 C2.82245407 0.00876343 3.55105133 0.00525879 4.30172729 0.00164795 C6.71625729 -0.00717295 9.13049558 -0.00131907 11.54502869 0.00543213 C13.21889808 0.00408558 14.89276708 0.00214513 16.56663513 -0.00036621 C20.07721169 -0.00331796 23.58768658 0.00098175 27.09825134 0.01031494 C31.60451093 0.02170954 36.1105323 0.01515033 40.61678314 0.00317001 C44.07395736 -0.00404725 47.53107483 -0.00176128 50.98825073 0.0034256 C52.65008573 0.00476247 54.31192584 0.00311308 55.97375488 -0.00153351 C58.29387616 -0.0065966 60.61360836 0.00110815 62.93370056 0.01226807 C63.62467331 0.0082196 64.31564606 0.00417114 65.02755737 0 C69.78524943 0.04252787 69.78524943 0.04252787 72.01377869 2.27105713 C72.27256775 4.21051025 72.27256775 4.21051025 72.27940369 6.55230713 C72.28327087 7.81494385 72.28327087 7.81494385 72.28721619 9.10308838 C72.27948181 9.98351807 72.27174744 10.86394775 72.26377869 11.77105713 C72.27538025 13.09170166 72.27538025 13.09170166 72.28721619 14.43902588 C72.28463806 15.28078369 72.28205994 16.1225415 72.27940369 16.98980713 C72.27714783 17.7626001 72.27489197 18.53539307 72.27256775 19.331604 C72.01377869 21.27105713 72.01377869 21.27105713 70.01377869 23.27105713 C67.79914856 23.51156616 67.79914856 23.51156616 65.01329041 23.49810791 C63.97236237 23.49795685 62.93143433 23.49780579 61.85896301 23.49765015 C60.16829208 23.48216629 60.16829208 23.48216629 58.44346619 23.46636963 C57.29210175 23.46353973 56.1407373 23.46070984 54.95448303 23.45779419 C51.26581056 23.44657121 47.57737815 23.42146269 43.88877869 23.39605713 C41.39268844 23.38603007 38.89659439 23.37690375 36.40049744 23.36871338 C30.27149825 23.34662493 24.14267921 23.31208056 18.01377869 23.27105713 C18.01377869 30.20105713 18.01377869 37.13105713 18.01377869 44.27105713 C23.176474 44.23625244 23.176474 44.23625244 28.44346619 44.20074463 C31.76621634 44.18516015 35.08896247 44.17300854 38.41172791 44.16119385 C40.72619948 44.15111821 43.04065828 44.13745738 45.35508728 44.12017822 C48.67624561 44.09599848 51.99723609 44.08458983 55.31846619 44.07574463 C56.35808502 44.06542206 57.39770386 44.05509949 58.46882629 44.04446411 C59.42967133 44.04431305 60.39051636 44.04416199 61.38047791 44.04400635 C62.65288834 44.03734451 62.65288834 44.03734451 63.95100403 44.0305481 C66.01377869 44.27105713 66.01377869 44.27105713 68.01377869 46.27105713 C68.27256775 48.11871338 68.27256775 48.11871338 68.27940369 50.33355713 C68.28327087 51.52851807 68.28327087 51.52851807 68.28721619 52.74761963 C68.27948181 53.580354 68.27174744 54.41308838 68.26377869 55.27105713 C68.27538025 56.52015869 68.27538025 56.52015869 68.28721619 57.79449463 C68.28463806 58.59113525 68.28205994 59.38777588 68.27940369 60.20855713 C68.27714783 60.93945557 68.27489197 61.670354 68.27256775 62.42340088 C68.01377869 64.27105713 68.01377869 64.27105713 66.01377869 66.27105713 C63.95100403 66.51156616 63.95100403 66.51156616 61.38047791 66.49810791 C59.93921036 66.49788132 59.93921036 66.49788132 58.46882629 66.49765015 C57.42920746 66.48732758 56.38958862 66.477005 55.31846619 66.46636963 C54.25588593 66.46353973 53.19330566 66.46070984 52.098526 66.45779419 C48.6951637 66.44657352 45.29206183 66.4214655 41.88877869 66.39605713 C39.58539706 66.38602977 37.28201133 66.3769035 34.97862244 66.36871338 C29.32349277 66.34832719 23.66892822 66.30918173 18.01377869 66.27105713 C18.01377869 74.52105713 18.01377869 82.77105713 18.01377869 91.27105713 C21.88870056 91.247854 25.76362244 91.22465088 29.75596619 91.20074463 C33.49570895 91.1851614 37.23544813 91.17300908 40.97520447 91.16119385 C43.5806896 91.15111649 46.18616337 91.13745443 48.79161072 91.12017822 C52.52975767 91.0960061 56.26775553 91.08459153 60.00596619 91.07574463 C61.1768277 91.06542206 62.34768921 91.05509949 63.55403137 91.04446411 C64.63500092 91.04431305 65.71597046 91.04416199 66.82969666 91.04400635 C67.78455963 91.03956512 68.73942261 91.0351239 69.72322083 91.0305481 C72.01377869 91.27105713 72.01377869 91.27105713 74.01377869 93.27105713 C74.27256775 95.21051025 74.27256775 95.21051025 74.27940369 97.55230713 C74.28327087 98.81494385 74.28327087 98.81494385 74.28721619 100.10308838 C74.27948181 100.98351807 74.27174744 101.86394775 74.26377869 102.77105713 C74.27538025 104.09170166 74.27538025 104.09170166 74.28721619 105.43902588 C74.28463806 106.28078369 74.28205994 107.1225415 74.27940369 107.98980713 C74.27714783 108.7626001 74.27489197 109.53539307 74.27256775 110.331604 C74.01377869 112.27105713 74.01377869 112.27105713 72.01377869 114.27105713 C69.55534947 114.46924994 67.2095827 114.54387671 64.75010681 114.52984619 C63.62795021 114.53510315 63.62795021 114.53510315 62.48312378 114.54046631 C60.00366509 114.54928803 57.52449041 114.54343302 55.04502869 114.53668213 C53.32631882 114.53802865 51.60760932 114.53996908 49.88890076 114.54248047 C46.28416828 114.54543233 42.67953482 114.54113214 39.07481384 114.53179932 C34.44748809 114.52040472 29.82039432 114.52696387 25.19307709 114.53894424 C21.64325707 114.5461612 18.09349231 114.54387568 14.54367065 114.53868866 C12.83717827 114.53735171 11.13068092 114.53900147 9.42419434 114.54364777 C7.04181064 114.54871034 4.65980594 114.54100679 2.27745056 114.52984619 C1.56777634 114.53389465 0.85810211 114.53794312 0.12692261 114.54211426 C-4.75769226 114.49958619 -4.75769226 114.49958619 -6.98622131 112.27105713 C-7.23790359 110.31263733 -7.23790359 110.31263733 -7.2401886 107.86798096 C-7.24582825 106.942565 -7.2514679 106.01714905 -7.25727844 105.06369019 C-7.25322998 104.04544159 -7.24918152 103.02719299 -7.24501038 101.97808838 C-7.24851501 100.90811615 -7.25201965 99.83814392 -7.25563049 98.73574829 C-7.2644615 95.18495267 -7.25859376 91.63435491 -7.25184631 88.08355713 C-7.25319257 85.62497926 -7.25513277 83.16640166 -7.25764465 80.70782471 C-7.26059778 75.54951448 -7.25629219 70.3912734 -7.2469635 65.23297119 C-7.23556892 58.60804235 -7.24212738 51.98327555 -7.25410843 45.35835266 C-7.26132192 40.27987437 -7.25904144 35.20143475 -7.25385284 30.12295532 C-7.25251493 27.6796161 -7.25416897 25.23627341 -7.25881195 22.79293823 C-7.26386876 19.38320565 -7.25617871 15.97373859 -7.24501038 12.56402588 C-7.24905884 11.54577728 -7.2531073 10.52752869 -7.25727844 9.47842407 C-7.25163879 8.55300812 -7.24599915 7.62759216 -7.2401886 6.6741333 C-7.23905752 5.4640284 -7.23905752 5.4640284 -7.23790359 4.22947693 C-6.67172259 -0.17615734 -3.76339962 0.03364013 0 0 Z " fill="#4D6D60" transform="translate(1439.9862213134766,1044.7289428710938)"/>
<path d="M0 0 C3.95014864 2.87283537 6.94597626 6.14267912 10.0859375 9.8359375 C12.73529679 12.83133556 15.60183954 15.57898188 18.49609375 18.3359375 C20 20 20 20 20 22 C20.99 22.33 21.98 22.66 23 23 C24.70925702 24.62295903 26.37166102 26.29586746 28 28 C72.17952634 72.72208193 153.53665063 91.07704893 212.55175781 107.32128906 C215.15050863 108.04172457 217.7433932 108.78098917 220.3359375 109.5234375 C235.89129149 113.9579908 251.53090698 118.05062933 267.19213867 122.0925293 C271.38959035 123.1773239 275.57994648 124.28658166 279.76708984 125.41046143 C281.83856218 125.95737678 283.91544611 126.47326967 285.99609375 126.98388672 C295.21342001 129.43143262 295.21342001 129.43143262 297.84375 133.171875 C298.66359375 134.94304687 298.66359375 134.94304687 299.5 136.75 C300.1132968 138.00063172 300.72787538 139.25063571 301.34375 140.5 C302.16359375 142.2325 302.16359375 142.2325 303 144 C303.97188192 145.60074669 304.96652782 147.18830871 306 148.75 C308 152 308 152 308 154 C303.43040383 154.18665521 299.70459976 153.55684629 295.3125 152.3125 C289.67806473 150.73171593 284.03278624 149.20636272 278.37109375 147.7265625 C77.05588855 94.88908313 77.05588855 94.88908313 31 55 C30.13632812 54.26910156 29.27265625 53.53820312 28.3828125 52.78515625 C20.61114156 46.03971486 14.18981873 38.98225625 11 29 C11 27.68 11 26.36 11 25 C10.34 25 9.68 25 9 25 C8.3503125 23.1746875 8.3503125 23.1746875 7.6875 21.3125 C6.77130335 18.85210335 5.88211747 16.8084409 4.5 14.5625 C1.90368081 10.12712138 0 5.16497313 0 0 Z " fill="#334743" transform="translate(501,358)"/>
<path d="M0 0 C0.7849585 0.00563965 1.56991699 0.0112793 2.37866211 0.01708984 C14.15724662 0.26084295 23.62647767 2.96011602 32.25390625 11.234375 C39.53994658 19.08322011 41.42807921 26.8058265 41.25 37.3125 C35.53094617 38.13786345 30.0232851 38.44003701 24.25 38.375 C23.47527344 38.37048828 22.70054688 38.36597656 21.90234375 38.36132812 C20.01819476 38.34969758 18.13408635 38.33176906 16.25 38.3125 C15.80851237 36.32478841 15.36702474 34.33707682 14.92553711 32.34936523 C13.8556624 29.12350159 11.8469166 27.40270117 9.25 25.3125 C3.2631604 23.3168868 -3.50298667 23.4601846 -9.375 25.6875 C-11.79991148 27.23955245 -11.79991148 27.23955245 -13.75 29.3125 C-14.33402133 31.72667872 -14.33402133 31.72667872 -13.75 34.3125 C-10.09477787 37.82424612 -6.54669586 39.3084513 -1.75 40.8125 C-1.09281982 41.02334229 -0.43563965 41.23418457 0.24145508 41.45141602 C3.38143345 42.45196047 6.53291131 43.39420145 9.69921875 44.30859375 C21.47366233 47.73156227 33.21946732 51.8144461 39.74609375 62.83984375 C44.79117753 72.57271076 45.95427892 82.70021943 43.25 93.5 C40.07734969 102.45720343 34.28362744 109.7707555 25.83984375 114.1640625 C13.50545502 119.63361044 -3.15025107 121.03058823 -16.125 116.6875 C-26.3848659 112.00900115 -33.87201605 104.34535994 -38.7109375 94.21484375 C-40.65747522 88.77771019 -41.42527506 83.06477036 -41.75 77.3125 C-41.255 76.3225 -41.255 76.3225 -40.75 75.3125 C-33.34028974 73.63423229 -25.29238363 74.20610274 -17.75 74.3125 C-17.50765625 75.12074219 -17.2653125 75.92898438 -17.015625 76.76171875 C-14.05693404 86.21106365 -14.05693404 86.21106365 -7.25 93.125 C-0.98555298 95.25043738 5.48555298 95.25043738 11.75 93.125 C15.13553649 90.67048604 17.79634994 88.63629927 18.6328125 84.3515625 C18.81800735 81.03040155 18.6746008 78.86108804 16.61547852 76.20068359 C13.77810075 73.93581832 11.39215334 73.15114505 7.90234375 72.1640625 C6.65646484 71.79796875 5.41058594 71.431875 4.12695312 71.0546875 C2.16889337 70.49697991 0.20960534 69.9437402 -1.74975586 69.390625 C-14.56584871 65.74052354 -26.61546901 61.47527275 -34.28515625 50.01953125 C-38.62948706 42.02063804 -39.20948929 33.19746114 -37.75 24.3125 C-34.75432316 14.73477263 -29.49388059 8.75146486 -20.8125 4.0625 C-14.18617274 0.74205469 -7.29111025 -0.05524166 0 0 Z " fill="#4E6D60" transform="translate(1017.75,1042.6875)"/>
<path d="M0 0 C0.98540268 -0.00953201 1.97080536 -0.01906403 2.98606873 -0.02888489 C4.59216759 -0.02751778 4.59216759 -0.02751778 6.23071289 -0.02612305 C7.33379288 -0.03040817 8.43687286 -0.0346933 9.57337952 -0.03910828 C11.91626296 -0.04486322 14.25916427 -0.04534332 16.60205078 -0.04101562 C20.15762728 -0.03788211 23.71235036 -0.06120836 27.26782227 -0.08666992 C29.5471181 -0.08894568 31.82641615 -0.08964513 34.10571289 -0.08862305 C35.68448463 -0.10243767 35.68448463 -0.10243767 37.29515076 -0.11653137 C48.06555569 -0.05035615 57.21592064 1.79834024 65.26586914 9.2746582 C72.87531617 17.09547876 74.52104001 26.9643437 74.51464844 37.46826172 C74.34557321 47.4801913 71.21139692 55.7771742 64.51586914 63.2199707 C59.62823184 67.93023407 54.84488079 69.8794355 48.26586914 71.2746582 C47.51885742 71.44811768 46.7718457 71.62157715 46.00219727 71.80029297 C42.97776509 72.32460344 40.159169 72.38743308 37.09008789 72.37231445 C35.3546875 72.36748047 35.3546875 72.36748047 33.58422852 72.36254883 C32.38604492 72.35416992 31.18786133 72.34579102 29.95336914 72.3371582 C28.73584961 72.33264648 27.51833008 72.32813477 26.26391602 72.32348633 C23.26451688 72.31172398 20.26521825 72.29528646 17.26586914 72.2746582 C17.27372437 74.12982056 17.27372437 74.12982056 17.28173828 76.02246094 C17.29978475 80.59390545 17.31129985 85.16534679 17.32080078 89.73681641 C17.32584181 91.71859262 17.33267452 93.70036509 17.34130859 95.68212891 C17.35338429 98.52417929 17.35909959 101.36618068 17.36352539 104.20825195 C17.36868668 105.09991562 17.37384796 105.99157928 17.37916565 106.91026306 C17.37936091 109.03206422 17.32796944 111.153766 17.26586914 113.2746582 C14.90631403 115.63421332 8.99834088 114.46008226 5.82836914 114.4621582 C4.35787109 114.48052734 4.35787109 114.48052734 2.85766602 114.49926758 C1.92116211 114.50120117 0.9846582 114.50313477 0.01977539 114.50512695 C-0.84317139 114.50923584 -1.70611816 114.51334473 -2.59521484 114.51757812 C-4.73413086 114.2746582 -4.73413086 114.2746582 -6.73413086 112.2746582 C-6.98581314 110.3162384 -6.98581314 110.3162384 -6.98809814 107.87158203 C-6.99373779 106.94616608 -6.99937744 106.02075012 -7.00518799 105.06729126 C-7.00113953 104.04904266 -6.99709106 103.03079407 -6.99291992 101.98168945 C-6.99642456 100.91171722 -6.9999292 99.841745 -7.00354004 98.73934937 C-7.01237105 95.18855375 -7.00650331 91.63795599 -6.99975586 88.0871582 C-7.00110211 85.62858034 -7.00304231 83.17000273 -7.0055542 80.71142578 C-7.00850732 75.55311555 -7.00420174 70.39487448 -6.99487305 65.23657227 C-6.98347847 58.61164343 -6.99003693 51.98687662 -7.00201797 45.36195374 C-7.00923147 40.28347545 -7.00695099 35.20503582 -7.00176239 30.1265564 C-7.00042448 27.68321717 -7.00207852 25.23987448 -7.0067215 22.79653931 C-7.01177831 19.38680673 -7.00408826 15.97733966 -6.99291992 12.56762695 C-6.99696838 11.54937836 -7.00101685 10.53112976 -7.00518799 9.48202515 C-6.99954834 8.55660919 -6.99390869 7.63119324 -6.98809814 6.67773438 C-6.98696707 5.46762947 -6.98696707 5.46762947 -6.98581314 4.233078 C-6.43104327 -0.08376263 -3.6671729 0.01945681 0 0 Z " fill="#4D6D60" transform="translate(1250.734130859375,1044.725341796875)"/>
<path d="M0 0 C4.01023198 2.26772748 8.01137586 4.55049016 12.00341797 6.85009766 C13.27218873 7.5808277 14.54193664 8.30986574 15.81298828 9.03662109 C36.1921777 20.73294785 54.97426366 34.98001499 73 50 C74.50965332 51.2521228 74.50965332 51.2521228 76.04980469 52.52954102 C84.72034504 59.79696182 92.83407867 67.52262571 100.80639648 75.5456543 C102.82117835 77.57122482 104.84653275 79.58578384 106.87304688 81.59960938 C114.04507869 88.76435627 120.72783933 96.0271172 127 104 C127.92258844 105.09049681 128.85226746 106.17508894 129.79296875 107.25 C142.20816834 121.50823901 153.0261149 136.95817043 163 153 C163.37398926 153.59635254 163.74797852 154.19270508 164.13330078 154.80712891 C185.56206818 189.10660376 215.69230155 239.46190711 215 281 C212.29790469 279.64895235 212.00795508 277.85230848 210.9140625 275.15625 C209.51633124 271.8590378 207.8802175 268.68934805 206.26171875 265.49609375 C205.46050574 263.91103148 204.67011574 262.32041511 203.89453125 260.72265625 C203.55808594 260.03042969 203.22164062 259.33820313 202.875 258.625 C202.58367187 258.01914062 202.29234375 257.41328125 201.9921875 256.7890625 C201.03232263 254.93989643 201.03232263 254.93989643 199.60058594 253.25366211 C197.75676608 250.657521 196.62344365 248.09176139 195.3984375 245.15234375 C194.91318604 243.99951904 194.42793457 242.84669434 193.92797852 241.65893555 C193.6749295 241.05189789 193.42188049 240.44486023 193.16116333 239.81942749 C191.8279596 236.62798795 190.47045843 233.44692773 189.11328125 230.265625 C188.84400314 229.63403976 188.57472504 229.00245453 188.29728699 228.35173035 C170.64465726 187.03951169 145.62001131 149.65543519 116 116 C115.175 115.0615625 114.35 114.123125 113.5 113.15625 C101.9740971 100.33368302 89.91658358 87.37320204 76.27734375 76.78125 C74.03785561 75.02960919 71.96410935 73.1771935 69.875 71.25 C55.39350124 58.26303314 38.88849834 46.26440745 22.00390625 36.59765625 C19.51981808 34.6171649 19.14174885 32.93803591 18 30 C17.16724946 28.53559861 16.29597074 27.09254173 15.390625 25.671875 C14.88273437 24.87136719 14.37484375 24.07085938 13.8515625 23.24609375 C13.32304688 22.42238281 12.79453125 21.59867188 12.25 20.75 C11.73695312 19.94175781 11.22390625 19.13351562 10.6953125 18.30078125 C7.58182295 13.41150747 4.38851829 8.58982653 1.09277344 3.82128906 C0 2 0 2 0 0 Z " fill="#82897E" transform="translate(1082,592)"/>
<path d="M0 0 C0.62519531 0.54140625 1.25039062 1.0828125 1.89453125 1.640625 C2.70921875 2.259375 3.52390625 2.878125 4.36328125 3.515625 C15.94077085 13.23499898 24.62106878 31.03925951 27.89453125 45.640625 C28.18154174 49.77152603 28.2366573 51.12743593 25.89453125 54.640625 C24.01489258 55.45800781 24.01489258 55.45800781 21.6640625 56.09375 C20.76768066 56.34060547 19.87129883 56.58746094 18.94775391 56.84179688 C17.94019043 57.10541016 16.93262695 57.36902344 15.89453125 57.640625 C14.78513184 57.94033203 13.67573242 58.24003906 12.53271484 58.54882812 C8.88859484 59.52139228 5.23686414 60.45918883 1.58203125 61.390625 C0.33357422 61.71933594 -0.91488281 62.04804687 -2.20117188 62.38671875 C-4.00424805 62.84498047 -4.00424805 62.84498047 -5.84375 63.3125 C-6.92696533 63.5919043 -8.01018066 63.87130859 -9.1262207 64.15917969 C-13.75919016 64.90786573 -16.21885303 64.23170215 -20.10546875 61.640625 C-20.87890625 59.57421875 -20.87890625 59.57421875 -21.48046875 57.078125 C-24.0438058 47.94212885 -28.52411847 40.51005747 -36.10546875 34.640625 C-38.39085405 33.61591125 -38.39085405 33.61591125 -40.73046875 32.828125 C-44.76702389 31.26147558 -46.01890097 29.57245309 -47.9140625 25.72265625 C-51.08277517 19.58803252 -54.72908938 13.89054283 -58.54296875 8.140625 C-61.06818328 4.31015628 -63.5901987 0.47763204 -66.10546875 -3.359375 C-66.77594238 -4.38160156 -67.44641602 -5.40382813 -68.13720703 -6.45703125 C-68.77770996 -7.44574219 -69.41821289 -8.43445312 -70.078125 -9.453125 C-70.65957275 -10.34708984 -71.24102051 -11.24105469 -71.84008789 -12.16210938 C-73.10546875 -14.359375 -73.10546875 -14.359375 -73.10546875 -16.359375 C-74.42546875 -16.689375 -75.74546875 -17.019375 -77.10546875 -17.359375 C-49.37370145 -20.20695403 -22.26794332 -18.68511741 0 0 Z " fill="#405550" transform="translate(1300.10546875,1198.359375)"/>
<path d="M0 0 C0 0.66 0 1.32 0 2 C0.66 2 1.32 2 2 2 C3.64220655 4.40995294 5.15026599 6.80314791 6.625 9.3125 C7.25535156 10.34793945 7.25535156 10.34793945 7.8984375 11.40429688 C11 16.61552608 11 16.61552608 11 20 C11.66 20 12.32 20 13 20 C14.40234375 22.01171875 14.40234375 22.01171875 15.9375 24.6875 C16.69353516 25.99267578 16.69353516 25.99267578 17.46484375 27.32421875 C17.97144531 28.20722656 18.47804688 29.09023437 19 30 C19.83724609 31.30904297 19.83724609 31.30904297 20.69140625 32.64453125 C22 35 22 35 22 38 C18.47029355 39.05647017 15.08217361 39.22888956 11.41015625 39.39453125 C10.06945903 39.46054353 8.72880286 39.52739366 7.38818359 39.5949707 C6.68361023 39.62982574 5.97903687 39.66468079 5.25311279 39.70059204 C-34.81597208 41.74753047 -77.64821192 47.72100518 -113 68 C-113.57395508 68.32661621 -114.14791016 68.65323242 -114.73925781 68.98974609 C-117.35907229 70.48373248 -119.96141974 72.00196996 -122.546875 73.5546875 C-124.66359164 74.80179762 -126.78744988 75.93508102 -129 77 C-121.82255129 52.78950137 -95.31934426 34.00691305 -74.49633789 22.38134766 C-56.26785564 12.54307302 -36.93939088 6.03064326 -16.75 1.625 C-15.60700439 1.37302856 -15.60700439 1.37302856 -14.44091797 1.1159668 C-9.53981994 0.11221238 -5.00212488 -0.14712132 0 0 Z " fill="#142627" transform="translate(631,223)"/>
<path d="M0 0 C2.46795267 2.39306651 4.23484268 4.76694402 6.046875 7.69921875 C6.93185669 9.12391479 6.93185669 9.12391479 7.8347168 10.57739258 C8.46676025 11.60372803 9.09880371 12.63006348 9.75 13.6875 C11.10537513 15.87245391 12.46084659 18.05734807 13.81640625 20.2421875 C14.51008301 21.36334961 15.20375977 22.48451172 15.91845703 23.63964844 C19.16023989 28.87304033 22.42344634 34.09297955 25.6875 39.3125 C26.3050415 40.30064697 26.92258301 41.28879395 27.55883789 42.30688477 C31.58962096 48.75390043 35.63103487 55.19411107 39.6875 61.625 C40.40909302 62.77029175 40.40909302 62.77029175 41.14526367 63.9387207 C41.59619385 64.6524585 42.04712402 65.36619629 42.51171875 66.1015625 C42.89803467 66.71338379 43.28435059 67.32520508 43.68237305 67.95556641 C45.05525298 70.16059215 45.05525298 70.16059215 47.12451172 72.66674805 C49.5744876 77.02102047 49.56215009 80.32314328 49.49609375 85.23046875 C49.49754898 86.10270584 49.49900421 86.97494293 49.50050354 87.87361145 C49.49885009 89.70833697 49.48735109 91.54307717 49.46655273 93.37768555 C49.43748206 96.1892349 49.44597776 98.99891038 49.45898438 101.81054688 C49.45274988 103.59636334 49.44436121 105.38217386 49.43359375 107.16796875 C49.43652939 108.00861374 49.43946503 108.84925873 49.44248962 109.71537781 C49.34817019 115.52465375 49.34817019 115.52465375 47.73976135 117.7205658 C45.58298448 119.3066765 44.41986124 119.37969758 41.75976562 119.38818359 C40.90878296 119.39764008 40.05780029 119.40709656 39.18103027 119.4168396 C37.80751404 119.40773056 37.80751404 119.40773056 36.40625 119.3984375 C35.46317993 119.40130768 34.52010986 119.40417786 33.54846191 119.40713501 C31.55460001 119.40917646 29.56071812 119.40364093 27.56689453 119.39111328 C24.51158956 119.37506089 21.45760748 119.39095933 18.40234375 119.41015625 C16.46614291 119.40817383 14.52994289 119.40433019 12.59375 119.3984375 C11.67807251 119.40451019 10.76239502 119.41058289 9.81896973 119.4168396 C8.96798706 119.40738312 8.11700439 119.39792664 7.24023438 119.38818359 C6.11796448 119.38460342 6.11796448 119.38460342 4.97302246 119.38095093 C2.38652368 118.88155007 1.6223723 118.05687571 0 116 C-0.36914349 113.81924152 -0.36914349 113.81924152 -0.36076355 111.23542786 C-0.36488754 110.25526199 -0.36901154 109.27509613 -0.3732605 108.26522827 C-0.36247467 107.19132843 -0.35168884 106.11742859 -0.34057617 105.01098633 C-0.34101425 103.87913406 -0.34145233 102.7472818 -0.34190369 101.58113098 C-0.33980978 97.83125701 -0.31644966 94.08182734 -0.29296875 90.33203125 C-0.28737496 87.73557276 -0.28310384 85.1391111 -0.28010559 82.54264832 C-0.26981243 76.40153503 -0.24615625 70.26060574 -0.21605712 64.11956185 C-0.18253323 57.12811224 -0.16603219 50.13665502 -0.15097082 43.14514506 C-0.11960712 28.76334404 -0.06683407 14.38167771 0 0 Z " fill="#000314" transform="translate(1065,1293)"/>
<path d="M0 0 C0.98484375 -0.00128906 1.9696875 -0.00257812 2.984375 -0.00390625 C4.02078125 -0.00003906 5.0571875 0.00382812 6.125 0.0078125 C7.67960937 0.00201172 7.67960937 0.00201172 9.265625 -0.00390625 C10.25046875 -0.00261719 11.2353125 -0.00132813 12.25 0 C13.16007812 0.00112793 14.07015625 0.00225586 15.0078125 0.00341797 C17.125 0.1328125 17.125 0.1328125 18.125 1.1328125 C18.22017803 3.90220216 18.25054265 6.64658409 18.23852539 9.41625977 C18.23867142 10.28447357 18.23881744 11.15268738 18.2389679 12.04721069 C18.23826846 14.93123836 18.23047463 17.8152023 18.22265625 20.69921875 C18.22079218 22.69319117 18.21936823 24.68716405 18.21836853 26.68113708 C18.21454248 31.94026952 18.20471145 37.19937453 18.19366455 42.45849609 C18.1834523 47.82063425 18.17887131 53.18277681 18.17382812 58.54492188 C18.16308926 69.07423083 18.1460118 79.60351939 18.125 90.1328125 C18.73665512 90.13059189 19.34831024 90.12837128 19.97850037 90.12608337 C26.32070331 90.10403128 32.66289544 90.08890623 39.00512695 90.07788086 C41.37492312 90.07283909 43.74471615 90.06600585 46.11450195 90.05737305 C49.51254039 90.0453006 52.91053785 90.03958279 56.30859375 90.03515625 C57.37524765 90.02999496 58.44190155 90.02483368 59.5408783 90.01951599 C61.01229027 90.01940269 61.01229027 90.01940269 62.51342773 90.01928711 C63.38168686 90.0170665 64.24994598 90.01484589 65.14451599 90.01255798 C67.125 90.1328125 67.125 90.1328125 68.125 91.1328125 C68.22399523 92.68236809 68.25579524 94.23634923 68.2578125 95.7890625 C68.25910156 96.72878906 68.26039062 97.66851563 68.26171875 98.63671875 C68.25785156 99.62542969 68.25398438 100.61414062 68.25 101.6328125 C68.25386719 102.62152344 68.25773437 103.61023437 68.26171875 104.62890625 C68.26042969 105.56863281 68.25914063 106.50835938 68.2578125 107.4765625 C68.25668457 108.34474609 68.25555664 109.21292969 68.25439453 110.10742188 C68.125 112.1328125 68.125 112.1328125 67.125 113.1328125 C64.89112794 113.2324517 62.65406141 113.26081045 60.41796875 113.26220703 C59.71717194 113.26395935 59.01637512 113.26571167 58.29434204 113.26751709 C55.96703651 113.27193516 53.63980636 113.26899779 51.3125 113.265625 C49.70206691 113.26629805 48.09163391 113.26726809 46.48120117 113.26852417 C43.10171545 113.27000108 39.7222561 113.26784681 36.34277344 113.26318359 C32.00123495 113.2574863 27.65975827 113.26076535 23.31822205 113.26675606 C19.99149099 113.27036186 16.6647747 113.269223 13.33804321 113.26662827 C11.73678582 113.26595905 10.1355271 113.26678724 8.53427124 113.26910782 C6.30015489 113.27163466 4.06614 113.26779335 1.83203125 113.26220703 C-0.07872192 113.26101364 -0.07872192 113.26101364 -2.02807617 113.25979614 C-4.875 113.1328125 -4.875 113.1328125 -5.875 112.1328125 C-5.9727394 110.69300036 -6.00131713 109.24842347 -6.00198364 107.80529785 C-6.00480347 106.87139725 -6.00762329 105.93749664 -6.01052856 104.97529602 C-6.00850433 103.94253036 -6.0064801 102.90976471 -6.00439453 101.84570312 C-6.00614685 100.76451706 -6.00789917 99.68333099 -6.00970459 98.56938171 C-6.01412558 94.97592591 -6.01118424 91.38251885 -6.0078125 87.7890625 C-6.00848547 85.30423981 -6.00945543 82.81941719 -6.01071167 80.33459473 C-6.01237858 74.44967875 -6.00886577 68.56478063 -6.0035609 62.67986727 C-5.99980608 57.97911652 -6.00113367 53.27838669 -6.00537109 48.57763672 C-6.01115037 42.1120696 -6.01208453 35.64652279 -6.00881577 29.18095398 C-6.00814625 26.70887752 -6.00897577 24.2368002 -6.01129532 21.76472473 C-6.01382039 18.31643352 -6.0099833 14.86820815 -6.00439453 11.41992188 C-6.00641876 10.38715622 -6.00844299 9.35439056 -6.01052856 8.29032898 C-6.00770874 7.35642838 -6.00488892 6.42252777 -6.00198364 5.46032715 C-6.00160662 4.64399559 -6.00122959 3.82766403 -6.00084114 2.98659515 C-5.74234798 -0.82130213 -3.23569865 0.00401025 0 0 Z " fill="#4C6C5F" transform="translate(1349.875,1045.8671875)"/>
<path d="M0 0 C0.93199219 -0.00257812 1.86398437 -0.00515625 2.82421875 -0.0078125 C3.80003906 -0.00007813 4.77585937 0.00765625 5.78125 0.015625 C6.75707031 0.00789063 7.73289062 0.00015625 8.73828125 -0.0078125 C9.67027344 -0.00523438 10.60226562 -0.00265625 11.5625 0 C12.41908203 0.00225586 13.27566406 0.00451172 14.15820312 0.00683594 C16.28125 0.265625 16.28125 0.265625 18.28125 2.265625 C18.53293228 4.2240448 18.53293228 4.2240448 18.53521729 6.66870117 C18.54085693 7.59411713 18.54649658 8.51953308 18.55230713 9.47299194 C18.54825867 10.49124054 18.54421021 11.50948914 18.54003906 12.55859375 C18.5435437 13.62856598 18.54704834 14.69853821 18.55065918 15.80093384 C18.55949019 19.35172946 18.55362245 22.90232721 18.546875 26.453125 C18.54822125 28.91170287 18.55016145 31.37028047 18.55267334 33.82885742 C18.55562646 38.98716765 18.55132088 44.14540873 18.54199219 49.30371094 C18.53059761 55.92863977 18.53715607 62.55340658 18.54913712 69.17832947 C18.55635061 74.25680775 18.55407013 79.33524738 18.54888153 84.41372681 C18.54754362 86.85706603 18.54919766 89.30040872 18.55384064 91.7437439 C18.55889745 95.15347648 18.5512074 98.56294354 18.54003906 101.97265625 C18.54408752 102.99090485 18.54813599 104.00915344 18.55230713 105.05825806 C18.54666748 105.98367401 18.54102783 106.90908997 18.53521729 107.86254883 C18.53446323 108.66928543 18.53370918 109.47602203 18.53293228 110.3072052 C18.28125 112.265625 18.28125 112.265625 16.28125 114.265625 C14.15820312 114.52441406 14.15820312 114.52441406 11.5625 114.53125 C10.63050781 114.53382812 9.69851563 114.53640625 8.73828125 114.5390625 C7.76246094 114.53132813 6.78664063 114.52359375 5.78125 114.515625 C4.31751953 114.52722656 4.31751953 114.52722656 2.82421875 114.5390625 C1.89222656 114.53648438 0.96023438 114.53390625 0 114.53125 C-0.85658203 114.52899414 -1.71316406 114.52673828 -2.59570312 114.52441406 C-4.71875 114.265625 -4.71875 114.265625 -6.71875 112.265625 C-6.97043228 110.3072052 -6.97043228 110.3072052 -6.97271729 107.86254883 C-6.97835693 106.93713287 -6.98399658 106.01171692 -6.98980713 105.05825806 C-6.98575867 104.04000946 -6.98171021 103.02176086 -6.97753906 101.97265625 C-6.9810437 100.90268402 -6.98454834 99.83271179 -6.98815918 98.73031616 C-6.99699019 95.17952054 -6.99112245 91.62892279 -6.984375 88.078125 C-6.98572125 85.61954713 -6.98766145 83.16096953 -6.99017334 80.70239258 C-6.99312646 75.54408235 -6.98882088 70.38584127 -6.97949219 65.22753906 C-6.96809761 58.60261023 -6.97465607 51.97784342 -6.98663712 45.35292053 C-6.99385061 40.27444225 -6.99157013 35.19600262 -6.98638153 30.11752319 C-6.98504362 27.67418397 -6.98669766 25.23084128 -6.99134064 22.7875061 C-6.99639745 19.37777352 -6.9887074 15.96830646 -6.97753906 12.55859375 C-6.98158752 11.54034515 -6.98563599 10.52209656 -6.98980713 9.47299194 C-6.98416748 8.54757599 -6.97852783 7.62216003 -6.97271729 6.66870117 C-6.97158621 5.45859627 -6.97158621 5.45859627 -6.97043228 4.2240448 C-6.41663896 -0.08519698 -3.66312764 0.00964706 0 0 Z " fill="#4F6E61" transform="translate(1084.71875,1044.734375)"/>
<path d="M0 0 C8.92732977 -0.09268433 17.85449391 -0.16375667 26.78219986 -0.20724869 C30.9277267 -0.22812288 35.07292434 -0.25643685 39.21826172 -0.30175781 C43.21885157 -0.34522249 47.21912481 -0.36913838 51.21993256 -0.37950897 C52.74619277 -0.38689931 54.27243568 -0.40133111 55.7985611 -0.42292023 C57.93672614 -0.45196424 60.07358346 -0.45595585 62.21191406 -0.45410156 C63.4288092 -0.46298401 64.64570435 -0.47186646 65.8994751 -0.48101807 C69 0 69 0 71.39190674 1.79168701 C73.80106891 5.10006734 73.57233644 8.4053798 73.53125 12.34375 C73.53699036 13.55291077 73.53699036 13.55291077 73.54284668 14.78649902 C73.5455639 16.48772432 73.5382159 18.18899153 73.52148438 19.89013672 C73.5000699 22.49150896 73.52129019 25.09011972 73.546875 27.69140625 C73.54423169 29.34636025 73.53910663 31.00131254 73.53125 32.65625 C73.53934692 33.43238647 73.54744385 34.20852295 73.55578613 35.00817871 C73.49890067 38.29063338 73.23475192 40.60805581 71.53466797 43.4465332 C67.77784994 45.74904073 64.2572973 45.9319806 59.9140625 46.19921875 C59.02440796 46.25730713 58.13475342 46.31539551 57.21813965 46.37524414 C31.40379578 47.75032599 31.40379578 47.75032599 23.84765625 43.03125 C19.06143165 37.86567876 16.63980451 31.6913132 14.26123047 25.14404297 C12.23204173 20.0856046 9.22592802 15.74926176 6.1875 11.25 C5.19489709 9.71800686 4.20858187 8.18190961 3.23046875 6.640625 C2.82207764 6.00672852 2.41368652 5.37283203 1.99291992 4.71972656 C1 3 1 3 0 0 Z " fill="#627169" transform="translate(1450,1184)"/>
<path d="M0 0 C1.11891997 14.34615245 1.07533591 28.61084081 1 43 C-20.285 43.99 -20.285 43.99 -42 45 C-46.455 37.575 -46.455 37.575 -51 30 C-53.60401019 25.76091364 -56.26209362 21.61004917 -59.0625 17.5 C-61.42755162 14.00988546 -63.29973854 10.50775915 -64.9453125 6.62890625 C-66.29767528 4.54025707 -67.7775301 4.03212153 -70 3 C-61.02079893 2.60859449 -52.04158781 2.2174205 -43.06236362 1.82654572 C-38.89337738 1.64505812 -34.72439469 1.46348945 -30.55541992 1.28173828 C-26.53543339 1.10648536 -22.5154378 0.93144176 -18.49543571 0.75654602 C-16.95837005 0.68963647 -15.42130773 0.62265028 -13.88424873 0.55558777 C-11.73867774 0.46198848 -9.59309527 0.36865671 -7.44750977 0.27539062 C-6.22395279 0.22209595 -5.00039581 0.16880127 -3.73976135 0.1138916 C-1 0 -1 0 0 0 Z " fill="#B6B2A4" transform="translate(1234,426)"/>
<path d="M0 0 C2.22411397 2.73214106 4.37684667 5.42567589 6.2265625 8.42578125 C6.61416748 9.04976807 7.00177246 9.67375488 7.40112305 10.31665039 C7.80500244 10.97528076 8.20888184 11.63391113 8.625 12.3125 C11.32239168 16.70796542 14.03198739 21.07926871 16.91015625 25.359375 C17.37534668 26.06408936 17.84053711 26.76880371 18.31982422 27.49487305 C19.21120698 28.84244901 20.11719732 30.18050996 21.03955078 31.50708008 C23.17812206 34.78243486 23.99827752 36.48670182 24.01171875 40.4921875 C22.83902737 44.55812133 21.24671797 47.91914135 19.125 51.5625 C18.72643799 52.25577393 18.32787598 52.94904785 17.91723633 53.66333008 C8.69323201 69.2787985 -4.11852914 83.3970534 -18 95 C-18.33 94.34 -18.66 93.68 -19 93 C-18.38256836 91.34619141 -18.38256836 91.34619141 -17.33984375 89.3515625 C-16.77160889 88.23031982 -16.77160889 88.23031982 -16.19189453 87.08642578 C-15.77794434 86.27415527 -15.36399414 85.46188477 -14.9375 84.625 C-1.68421674 57.50452118 -0.48545919 29.61837491 0 0 Z " fill="#020617" transform="translate(930,1075)"/>
<path d="M0 0 C5.18434064 2.74272567 9.27587856 5.76361365 13.5 9.8125 C14.06823486 10.3502002 14.63646973 10.88790039 15.22192383 11.44189453 C16.33399156 12.49707615 17.4432602 13.55521791 18.54931641 14.61669922 C19.69728354 15.71134442 20.86652075 16.78367938 22.04296875 17.84765625 C38.7158245 33.33242251 49.92335797 58.39051731 51 81 C47.37899366 77.59788006 44.72113046 74.26716709 42.1875 70 C41.50301599 68.85522241 40.81810688 67.71069892 40.1328125 66.56640625 C39.78508789 65.98133301 39.43736328 65.39625977 39.07910156 64.79345703 C37.9889541 62.98164181 36.87111519 61.19021845 35.7421875 59.40234375 C35.37714111 58.82162109 35.01209473 58.24089844 34.63598633 57.64257812 C33.61434809 56.01985321 32.59043751 54.39855959 31.56640625 52.77734375 C30.23685253 50.41995549 29.44948547 48.63993578 29 46 C28.34 46 27.68 46 27 46 C25.8425293 44.36694336 25.8425293 44.36694336 24.57421875 42.08984375 C24.10693359 41.26419922 23.63964844 40.43855469 23.15820312 39.58789062 C22.67287109 38.71326172 22.18753906 37.83863281 21.6875 36.9375 C17.78383611 29.90836427 17.78383611 29.90836427 13.33203125 23.22265625 C11.27420935 20.37893252 9.60969704 17.60964201 8 14.5 C6.21616856 11.14029674 4.3860369 7.99692563 2.125 4.9375 C0 2 0 2 0 0 Z " fill="#D3C8B8" transform="translate(878,991)"/>
<path d="M0 0 C2.805 -0.04125 5.61 -0.0825 8.5 -0.125 C9.36689453 -0.14320801 10.23378906 -0.16141602 11.12695312 -0.18017578 C17.77673264 -0.22689907 23.76055731 0.0871427 29 4.5625 C31.54468092 8.93617033 31.93862617 12.05893018 31 17 C28.90036931 21.53520229 26.7455525 23.53907863 22.12866211 25.41113281 C17.9970857 26.55408066 13.81392919 26.30593492 9.5625 26.1875 C4.8290625 26.0946875 4.8290625 26.0946875 0 26 C0 17.42 0 8.84 0 0 Z " fill="#F0DFCD" transform="translate(1269,1068)"/>
<path d="M0 0 C6.31067961 -0.48543689 6.31067961 -0.48543689 9.21875 1.5625 C11.65909392 4.90191799 11.40140053 7.16218578 11.25 11.25 C11.21390625 12.51328125 11.1778125 13.7765625 11.140625 15.078125 C11.07101562 16.52445313 11.07101562 16.52445313 11 18 C7.91434503 15.28423427 5.92712681 11.91344172 3.8125 8.4375 C3.44447266 7.84775391 3.07644531 7.25800781 2.69726562 6.65039062 C0 2.25169585 0 2.25169585 0 0 Z " fill="#5F6F67" transform="translate(1504,1270)"/>
<path d="M0 0 C0 4.12744343 -1.61750496 5.04694583 -4.4375 8 C-8.91320268 12.75056178 -13.04010572 17.66234789 -17.08984375 22.78515625 C-19 25 -19 25 -22 27 C-22.66 25.68 -23.32 24.36 -24 23 C-23.59273682 22.62302979 -23.18547363 22.24605957 -22.76586914 21.85766602 C-15.04246585 14.70079816 -7.35692822 7.53636549 0 0 Z " fill="#162929" transform="translate(1171,1401)"/>
<path d="M0 0 C0 3.96800545 -1.41915096 5.05729966 -3.9375 8.0625 C-6.75398315 11.34455941 -6.75398315 11.34455941 -9 15 C-11.28401108 16.46410966 -13.57392556 17.78696278 -16 19 C-14.57417482 15.71914717 -12.83258594 13.64496065 -10.25 11.1875 C-6.58895313 7.62666427 -3.26863807 3.92236569 0 0 Z " fill="#232D33" transform="translate(248,88)"/>
<path d="M0 0 C1.98 0.66 3.96 1.32 6 2 C5.67 3.98 5.34 5.96 5 8 C4.34 8 3.68 8 3 8 C0.95830515 5.09451118 0 3.59857954 0 0 Z " fill="#364A46" transform="translate(1324,1336)"/>
<path d="M0 0 C0 3.77910478 -0.99703962 4.46106101 -3.5 7.1875 C-4.1496875 7.90292969 -4.799375 8.61835937 -5.46875 9.35546875 C-5.9740625 9.89816406 -6.479375 10.44085937 -7 11 C-7.66 10.34 -8.32 9.68 -9 9 C-6.03 6.03 -3.06 3.06 0 0 Z " fill="#51605B" transform="translate(1171,1401)"/>
</svg>
